G04 #@! TF.FileFunction,Soldermask,Top*
%FSLAX46Y46*%
G04 Gerber Fmt 4.6, Leading zero omitted, Abs format (unit mm)*
G04 Created by KiCad (PCBNEW 4.0.4-stable) date 08/14/17 17:15:18*
%MOMM*%
%LPD*%
G01*
G04 APERTURE LIST*
%ADD10C,0.100000*%
%ADD11R,2.032000X2.032000*%
%ADD12C,2.032000*%
%ADD13C,2.400000*%
%ADD14R,2.400000X2.400000*%
%ADD15C,6.499860*%
%ADD16C,3.000000*%
%ADD17C,6.000000*%
%ADD18O,2.032000X1.727200*%
%ADD19R,2.032000X1.727200*%
%ADD20C,1.905000*%
%ADD21R,2.100580X2.100580*%
%ADD22C,2.199640*%
%ADD23C,2.540000*%
%ADD24C,2.499360*%
%ADD25R,2.499360X2.499360*%
%ADD26C,1.600000*%
%ADD27R,1.400000X1.400000*%
%ADD28R,1.574800X2.286000*%
%ADD29O,1.574800X2.286000*%
%ADD30O,2.286000X1.778000*%
%ADD31R,2.286000X1.778000*%
%ADD32R,1.905000X1.905000*%
%ADD33R,1.727200X2.032000*%
%ADD34O,1.727200X2.032000*%
%ADD35R,3.000000X3.000000*%
%ADD36R,2.286000X1.574800*%
%ADD37O,2.286000X1.574800*%
%ADD38R,1.727200X1.727200*%
%ADD39O,1.727200X1.727200*%
%ADD40O,2.032000X2.032000*%
%ADD41C,2.500000*%
%ADD42R,2.500000X2.500000*%
%ADD43O,2.500000X3.000000*%
%ADD44O,3.000000X2.500000*%
%ADD45C,1.700000*%
%ADD46R,1.700000X1.700000*%
%ADD47R,1.000000X1.500000*%
%ADD48R,1.727200X2.400000*%
%ADD49R,2.400000X1.727200*%
G04 APERTURE END LIST*
D10*
D11*
X79375000Y99695000D03*
D12*
X74295000Y99695000D03*
D13*
X29210000Y116205000D03*
X29210000Y111105000D03*
X29210000Y106005000D03*
D14*
X29210000Y100905000D03*
D15*
X170360000Y60650000D03*
X39860000Y15650000D03*
X12860000Y60650000D03*
D16*
X176610000Y115650000D03*
X176610000Y5650000D03*
X6610000Y5650000D03*
X6610000Y115650000D03*
D17*
X30170000Y69755000D03*
X79170000Y69755000D03*
X79170000Y11755000D03*
X39170000Y88255000D03*
X30170000Y11755000D03*
X64670000Y33755000D03*
D18*
X135255000Y74295000D03*
D19*
X132715000Y74295000D03*
D18*
X135255000Y43815000D03*
D19*
X132715000Y43815000D03*
X132715000Y46355000D03*
D18*
X135255000Y46355000D03*
X135255000Y51435000D03*
D19*
X132715000Y51435000D03*
X132715000Y48895000D03*
D18*
X135255000Y48895000D03*
X135255000Y53975000D03*
D19*
X132715000Y53975000D03*
X132715000Y56515000D03*
D18*
X135255000Y56515000D03*
X135255000Y71755000D03*
D19*
X132715000Y71755000D03*
X132715000Y69215000D03*
D18*
X135255000Y69215000D03*
X135255000Y64135000D03*
D19*
X132715000Y64135000D03*
X132715000Y66675000D03*
D18*
X135255000Y66675000D03*
X135255000Y61595000D03*
D19*
X132715000Y61595000D03*
X132715000Y59055000D03*
D18*
X135255000Y59055000D03*
X130175000Y43815000D03*
X130175000Y46355000D03*
X130175000Y48895000D03*
X130175000Y51435000D03*
X125095000Y53975000D03*
X130175000Y61595000D03*
X130175000Y64135000D03*
X130175000Y66675000D03*
X130175000Y69215000D03*
X130175000Y71755000D03*
X130175000Y74295000D03*
X130175000Y76835000D03*
X127635000Y53975000D03*
X127635000Y51435000D03*
X127635000Y48895000D03*
X127635000Y46355000D03*
X127635000Y43815000D03*
X130175000Y53975000D03*
X125095000Y51435000D03*
X125095000Y48895000D03*
X125095000Y46355000D03*
X125095000Y43815000D03*
X127635000Y76835000D03*
X127635000Y74295000D03*
X127635000Y71755000D03*
X127635000Y69215000D03*
X127635000Y66675000D03*
X127635000Y64135000D03*
X127635000Y61595000D03*
X125095000Y76835000D03*
X125095000Y74295000D03*
X125095000Y71755000D03*
X125095000Y69215000D03*
X125095000Y66675000D03*
X125095000Y64135000D03*
X125095000Y61595000D03*
X135255000Y76835000D03*
D19*
X132715000Y76835000D03*
D18*
X130175000Y56515000D03*
X130175000Y59055000D03*
X127635000Y56515000D03*
X127635000Y59055000D03*
X125095000Y59055000D03*
X125095000Y56515000D03*
X137795000Y56515000D03*
X137795000Y59055000D03*
X140335000Y59055000D03*
X140335000Y56515000D03*
X137795000Y61595000D03*
X137795000Y64135000D03*
X137795000Y66675000D03*
X137795000Y69215000D03*
X137795000Y71755000D03*
X137795000Y74295000D03*
X137795000Y76835000D03*
X140335000Y61595000D03*
X140335000Y64135000D03*
X140335000Y66675000D03*
X140335000Y69215000D03*
X140335000Y71755000D03*
X140335000Y74295000D03*
X140335000Y76835000D03*
X137795000Y43815000D03*
X137795000Y46355000D03*
X137795000Y48895000D03*
X137795000Y51435000D03*
X140335000Y43815000D03*
X140335000Y46355000D03*
X140335000Y48895000D03*
X140335000Y51435000D03*
X140335000Y53975000D03*
X137795000Y53975000D03*
X122555000Y43815000D03*
X122555000Y46355000D03*
X122555000Y48895000D03*
X122555000Y51435000D03*
X117475000Y53975000D03*
X122555000Y61595000D03*
X122555000Y64135000D03*
X122555000Y66675000D03*
X122555000Y69215000D03*
X122555000Y71755000D03*
X122555000Y74295000D03*
X122555000Y76835000D03*
X120015000Y53975000D03*
X120015000Y51435000D03*
X120015000Y48895000D03*
X120015000Y46355000D03*
X120015000Y43815000D03*
X122555000Y53975000D03*
X117475000Y51435000D03*
X117475000Y48895000D03*
X117475000Y46355000D03*
X117475000Y43815000D03*
X120015000Y76835000D03*
X120015000Y74295000D03*
X120015000Y71755000D03*
X120015000Y69215000D03*
X120015000Y66675000D03*
X120015000Y64135000D03*
X120015000Y61595000D03*
X117475000Y76835000D03*
X117475000Y74295000D03*
X117475000Y71755000D03*
X117475000Y69215000D03*
X117475000Y66675000D03*
X117475000Y64135000D03*
X117475000Y61595000D03*
X122555000Y56515000D03*
X122555000Y59055000D03*
X120015000Y56515000D03*
X120015000Y59055000D03*
X117475000Y59055000D03*
X117475000Y56515000D03*
D19*
X112395000Y48895000D03*
D18*
X114935000Y48895000D03*
D19*
X112395000Y46355000D03*
X112395000Y43815000D03*
D18*
X114935000Y43815000D03*
X114935000Y46355000D03*
X107315000Y59055000D03*
X107315000Y56515000D03*
X109855000Y59055000D03*
X109855000Y56515000D03*
X114935000Y53975000D03*
X114935000Y51435000D03*
D19*
X112395000Y51435000D03*
X112395000Y53975000D03*
X112395000Y76835000D03*
X112395000Y74295000D03*
D18*
X114935000Y74295000D03*
X114935000Y76835000D03*
X107315000Y61595000D03*
X107315000Y64135000D03*
X107315000Y66675000D03*
X107315000Y69215000D03*
X107315000Y71755000D03*
X107315000Y74295000D03*
X107315000Y76835000D03*
X109855000Y53975000D03*
X107315000Y43815000D03*
X107315000Y46355000D03*
X107315000Y48895000D03*
X107315000Y51435000D03*
X107315000Y53975000D03*
X114935000Y71755000D03*
X114935000Y69215000D03*
X114935000Y64135000D03*
X114935000Y66675000D03*
X114935000Y56515000D03*
X114935000Y59055000D03*
D19*
X112395000Y61595000D03*
X112395000Y59055000D03*
X112395000Y56515000D03*
X112395000Y66675000D03*
X112395000Y64135000D03*
X112395000Y69215000D03*
X112395000Y71755000D03*
D18*
X114935000Y61595000D03*
X109855000Y76835000D03*
X109855000Y74295000D03*
X109855000Y71755000D03*
X109855000Y69215000D03*
X109855000Y66675000D03*
X109855000Y64135000D03*
X109855000Y61595000D03*
X109855000Y51435000D03*
X109855000Y48895000D03*
X109855000Y46355000D03*
X109855000Y43815000D03*
D12*
X141859000Y9906000D03*
X134239000Y9906000D03*
X141859000Y12446000D03*
X134239000Y12446000D03*
X141859000Y14986000D03*
X134239000Y14986000D03*
X141859000Y17526000D03*
X134239000Y17526000D03*
X141859000Y20066000D03*
X134239000Y20066000D03*
X141859000Y22606000D03*
X134239000Y22606000D03*
X141859000Y25146000D03*
X134239000Y25146000D03*
X141859000Y27686000D03*
X134239000Y27686000D03*
X141859000Y30226000D03*
X134239000Y30226000D03*
X141859000Y32766000D03*
X134239000Y32766000D03*
X141859000Y35306000D03*
X134239000Y35306000D03*
X141859000Y37846000D03*
X134239000Y37846000D03*
D20*
X41275000Y45720000D03*
X41275000Y40640000D03*
X51435000Y20320000D03*
X51435000Y15240000D03*
X18415000Y31115000D03*
X23495000Y31115000D03*
D21*
X100076000Y44323000D03*
D22*
X100076000Y46863000D03*
X100076000Y49403000D03*
X100076000Y51943000D03*
D12*
X166370000Y33020000D03*
X166370000Y25400000D03*
X44450000Y45720000D03*
X44450000Y38100000D03*
X44450000Y34925000D03*
X44450000Y27305000D03*
X45085000Y57150000D03*
X45085000Y64770000D03*
X41910000Y64770000D03*
X41910000Y57150000D03*
X95504000Y43180000D03*
X87884000Y43180000D03*
X77470000Y36195000D03*
X77470000Y43815000D03*
X38735000Y66040000D03*
X38735000Y58420000D03*
X64135000Y64135000D03*
X64135000Y56515000D03*
X160655000Y19050000D03*
X160655000Y11430000D03*
X158115000Y19050000D03*
X158115000Y11430000D03*
X155575000Y19050000D03*
X155575000Y11430000D03*
X153035000Y19050000D03*
X153035000Y11430000D03*
X160147000Y104775000D03*
X160147000Y112395000D03*
X157607000Y104775000D03*
X157607000Y112395000D03*
X155067000Y104775000D03*
X155067000Y112395000D03*
X152527000Y104775000D03*
X152527000Y112395000D03*
X143764000Y94996000D03*
X143764000Y87376000D03*
X146304000Y94996000D03*
X146304000Y87376000D03*
X148844000Y94996000D03*
X148844000Y87376000D03*
X151384000Y94996000D03*
X151384000Y87376000D03*
X153924000Y94996000D03*
X153924000Y87376000D03*
X156464000Y94996000D03*
X156464000Y87376000D03*
X159004000Y94996000D03*
X159004000Y87376000D03*
X161544000Y94996000D03*
X161544000Y87376000D03*
X164084000Y94996000D03*
X164084000Y87376000D03*
X166624000Y94996000D03*
X166624000Y87376000D03*
X169164000Y94996000D03*
X169164000Y87376000D03*
X171704000Y94996000D03*
X171704000Y87376000D03*
D16*
X14605000Y96015000D03*
X14605000Y118615000D03*
D12*
X83185000Y81407000D03*
X90805000Y81407000D03*
X83185000Y83947000D03*
X90805000Y83947000D03*
X83185000Y86487000D03*
X90805000Y86487000D03*
X83185000Y89027000D03*
X90805000Y89027000D03*
X83185000Y91567000D03*
X90805000Y91567000D03*
X83185000Y94107000D03*
X90805000Y94107000D03*
X83185000Y96647000D03*
X90805000Y96647000D03*
X83185000Y99187000D03*
X90805000Y99187000D03*
X83185000Y101727000D03*
X90805000Y101727000D03*
X83185000Y104267000D03*
X90805000Y104267000D03*
X83185000Y106807000D03*
X90805000Y106807000D03*
X83185000Y109347000D03*
X90805000Y109347000D03*
D20*
X55880000Y52705000D03*
X50800000Y52705000D03*
X60960000Y56515000D03*
X60960000Y61595000D03*
D23*
X41275000Y36830000D03*
X41275000Y27432000D03*
D24*
X3810000Y86360000D03*
D25*
X3810000Y96520000D03*
D24*
X3810000Y91440000D03*
D26*
X40005000Y75035000D03*
X40005000Y76835000D03*
D27*
X40005000Y73235000D03*
D26*
X40005000Y78635000D03*
X40005000Y80435000D03*
D20*
X68580000Y20320000D03*
X68580000Y15240000D03*
D28*
X63182500Y21907500D03*
D29*
X60642500Y21907500D03*
X58102500Y21907500D03*
X55562500Y21907500D03*
X55562500Y14287500D03*
X58102500Y14287500D03*
X60642500Y14287500D03*
X63182500Y14287500D03*
D30*
X24130000Y26035000D03*
X24130000Y23495000D03*
D31*
X16510000Y26035000D03*
D30*
X16510000Y23495000D03*
X16510000Y20955000D03*
X16510000Y18415000D03*
X16510000Y15875000D03*
X16510000Y13335000D03*
X16510000Y10795000D03*
X16510000Y8255000D03*
X24130000Y8255000D03*
X24130000Y10795000D03*
X24130000Y13335000D03*
X24130000Y15875000D03*
X24130000Y18415000D03*
X24130000Y20955000D03*
X24130000Y52705000D03*
X24130000Y50165000D03*
D31*
X16510000Y52705000D03*
D30*
X16510000Y50165000D03*
X16510000Y47625000D03*
X16510000Y45085000D03*
X16510000Y42545000D03*
X16510000Y40005000D03*
X16510000Y37465000D03*
X16510000Y34925000D03*
X24130000Y34925000D03*
X24130000Y37465000D03*
X24130000Y40005000D03*
X24130000Y42545000D03*
X24130000Y45085000D03*
X24130000Y47625000D03*
D32*
X45085000Y52070000D03*
D20*
X42545000Y52070000D03*
X42545000Y49530000D03*
D30*
X49530000Y31115000D03*
X49530000Y33655000D03*
D31*
X57150000Y31115000D03*
D30*
X57150000Y33655000D03*
X57150000Y36195000D03*
X57150000Y38735000D03*
X57150000Y41275000D03*
X57150000Y43815000D03*
X57150000Y46355000D03*
X57150000Y48895000D03*
X49530000Y48895000D03*
X49530000Y46355000D03*
X49530000Y43815000D03*
X49530000Y41275000D03*
X49530000Y38735000D03*
X49530000Y36195000D03*
D33*
X152527000Y100965000D03*
D34*
X155067000Y100965000D03*
X157607000Y100965000D03*
X160147000Y100965000D03*
D33*
X153035000Y22225000D03*
D34*
X155575000Y22225000D03*
X158115000Y22225000D03*
X160655000Y22225000D03*
D16*
X69215000Y107315000D03*
D35*
X23495000Y97155000D03*
D16*
X69215000Y117475000D03*
X23495000Y117475000D03*
D36*
X49530000Y64770000D03*
D37*
X49530000Y62230000D03*
X49530000Y59690000D03*
X49530000Y57150000D03*
X57150000Y57150000D03*
X57150000Y59690000D03*
X57150000Y62230000D03*
X57150000Y64770000D03*
D12*
X47625000Y69850000D03*
X47625000Y74930000D03*
D11*
X87249000Y47625000D03*
D12*
X87249000Y50165000D03*
D11*
X94234000Y53975000D03*
D12*
X94234000Y56515000D03*
D11*
X87249000Y53975000D03*
D12*
X87249000Y56515000D03*
D11*
X148082000Y116205000D03*
D12*
X148082000Y118745000D03*
D11*
X154432000Y116205000D03*
D12*
X154432000Y118745000D03*
D11*
X160782000Y116205000D03*
D12*
X160782000Y118745000D03*
D11*
X167132000Y116205000D03*
D12*
X167132000Y118745000D03*
D11*
X156845000Y7620000D03*
D12*
X156845000Y5080000D03*
D11*
X163830000Y7620000D03*
D12*
X163830000Y5080000D03*
D11*
X170815000Y7620000D03*
D12*
X170815000Y5080000D03*
D11*
X94234000Y47625000D03*
D12*
X94234000Y50165000D03*
D26*
X61065000Y118745000D03*
X62865000Y118745000D03*
D27*
X59265000Y118745000D03*
D26*
X64665000Y118745000D03*
X66465000Y118745000D03*
D11*
X149860000Y7620000D03*
D12*
X149860000Y5080000D03*
D38*
X5080000Y54610000D03*
D39*
X7620000Y54610000D03*
X5080000Y52070000D03*
X7620000Y52070000D03*
X5080000Y49530000D03*
X7620000Y49530000D03*
X5080000Y46990000D03*
X7620000Y46990000D03*
X5080000Y44450000D03*
X7620000Y44450000D03*
X5080000Y41910000D03*
X7620000Y41910000D03*
X5080000Y39370000D03*
X7620000Y39370000D03*
X5080000Y36830000D03*
X7620000Y36830000D03*
D38*
X5080000Y28575000D03*
D39*
X7620000Y28575000D03*
X5080000Y26035000D03*
X7620000Y26035000D03*
X5080000Y23495000D03*
X7620000Y23495000D03*
X5080000Y20955000D03*
X7620000Y20955000D03*
X5080000Y18415000D03*
X7620000Y18415000D03*
X5080000Y15875000D03*
X7620000Y15875000D03*
X5080000Y13335000D03*
X7620000Y13335000D03*
X5080000Y10795000D03*
X7620000Y10795000D03*
D11*
X5080000Y32385000D03*
D40*
X7620000Y32385000D03*
D11*
X5080000Y61595000D03*
D40*
X7620000Y61595000D03*
D19*
X20320000Y76835000D03*
D18*
X20320000Y74295000D03*
X20320000Y71755000D03*
X20320000Y69215000D03*
X20320000Y66675000D03*
X20320000Y64135000D03*
X20320000Y61595000D03*
X20320000Y59055000D03*
D38*
X147574000Y46482000D03*
D39*
X145034000Y46482000D03*
X147574000Y49022000D03*
X145034000Y49022000D03*
X147574000Y51562000D03*
X145034000Y51562000D03*
X147574000Y54102000D03*
X145034000Y54102000D03*
X147574000Y56642000D03*
X145034000Y56642000D03*
X147574000Y59182000D03*
X145034000Y59182000D03*
X147574000Y61722000D03*
X145034000Y61722000D03*
X147574000Y64262000D03*
X145034000Y64262000D03*
X147574000Y66802000D03*
X145034000Y66802000D03*
X147574000Y69342000D03*
X145034000Y69342000D03*
X147574000Y71882000D03*
X145034000Y71882000D03*
X147574000Y74422000D03*
X145034000Y74422000D03*
D38*
X93345000Y35306000D03*
D39*
X93345000Y37846000D03*
X95885000Y35306000D03*
X95885000Y37846000D03*
X98425000Y35306000D03*
X98425000Y37846000D03*
X100965000Y35306000D03*
X100965000Y37846000D03*
X103505000Y35306000D03*
X103505000Y37846000D03*
X106045000Y35306000D03*
X106045000Y37846000D03*
X108585000Y35306000D03*
X108585000Y37846000D03*
X111125000Y35306000D03*
X111125000Y37846000D03*
X113665000Y35306000D03*
X113665000Y37846000D03*
X116205000Y35306000D03*
X116205000Y37846000D03*
X118745000Y35306000D03*
X118745000Y37846000D03*
X121285000Y35306000D03*
X121285000Y37846000D03*
D38*
X130175000Y83947000D03*
D39*
X130175000Y81407000D03*
X127635000Y83947000D03*
X127635000Y81407000D03*
X125095000Y83947000D03*
X125095000Y81407000D03*
X122555000Y83947000D03*
X122555000Y81407000D03*
X120015000Y83947000D03*
X120015000Y81407000D03*
X117475000Y83947000D03*
X117475000Y81407000D03*
X114935000Y83947000D03*
X114935000Y81407000D03*
X112395000Y83947000D03*
X112395000Y81407000D03*
X109855000Y83947000D03*
X109855000Y81407000D03*
X107315000Y83947000D03*
X107315000Y81407000D03*
X104775000Y83947000D03*
X104775000Y81407000D03*
X102235000Y83947000D03*
X102235000Y81407000D03*
D41*
X59690000Y97850000D03*
X59690000Y105350000D03*
D16*
X12065000Y80645000D03*
X20955000Y89535000D03*
D19*
X147320000Y33655000D03*
D18*
X147320000Y31115000D03*
X147320000Y28575000D03*
X147320000Y26035000D03*
D38*
X85090000Y74295000D03*
D39*
X85090000Y76835000D03*
X87630000Y74295000D03*
X87630000Y76835000D03*
X90170000Y74295000D03*
X90170000Y76835000D03*
X92710000Y74295000D03*
X92710000Y76835000D03*
X95250000Y74295000D03*
X95250000Y76835000D03*
X97790000Y74295000D03*
X97790000Y76835000D03*
X100330000Y74295000D03*
X100330000Y76835000D03*
X102870000Y74295000D03*
X102870000Y76835000D03*
D38*
X85090000Y67945000D03*
D39*
X85090000Y70485000D03*
X87630000Y67945000D03*
X87630000Y70485000D03*
X90170000Y67945000D03*
X90170000Y70485000D03*
X92710000Y67945000D03*
X92710000Y70485000D03*
X95250000Y67945000D03*
X95250000Y70485000D03*
X97790000Y67945000D03*
X97790000Y70485000D03*
X100330000Y67945000D03*
X100330000Y70485000D03*
X102870000Y67945000D03*
X102870000Y70485000D03*
D38*
X85090000Y61595000D03*
D39*
X85090000Y64135000D03*
X87630000Y61595000D03*
X87630000Y64135000D03*
X90170000Y61595000D03*
X90170000Y64135000D03*
X92710000Y61595000D03*
X92710000Y64135000D03*
X95250000Y61595000D03*
X95250000Y64135000D03*
X97790000Y61595000D03*
X97790000Y64135000D03*
X100330000Y61595000D03*
X100330000Y64135000D03*
X102870000Y61595000D03*
X102870000Y64135000D03*
D38*
X63500000Y6350000D03*
D39*
X63500000Y3810000D03*
X60960000Y6350000D03*
X60960000Y3810000D03*
X58420000Y6350000D03*
X58420000Y3810000D03*
X55880000Y6350000D03*
X55880000Y3810000D03*
D38*
X39370000Y99060000D03*
D39*
X36830000Y99060000D03*
X39370000Y101600000D03*
X36830000Y101600000D03*
X39370000Y104140000D03*
X36830000Y104140000D03*
D11*
X114935000Y40640000D03*
X112395000Y40640000D03*
X109855000Y40640000D03*
X135255000Y40640000D03*
X132715000Y40640000D03*
X130175000Y40640000D03*
D32*
X76835000Y29845000D03*
D20*
X79375000Y29845000D03*
X79375000Y32385000D03*
D12*
X23495000Y85090000D03*
X15875000Y85090000D03*
D16*
X45720000Y106680000D03*
X45720000Y93345000D03*
D12*
X47625000Y17780000D03*
X47625000Y10160000D03*
X45085000Y17780000D03*
X45085000Y10160000D03*
D42*
X83185000Y117602000D03*
D43*
X88265000Y117602000D03*
X93345000Y117602000D03*
X98425000Y117602000D03*
X103505000Y117602000D03*
X108585000Y117602000D03*
X113665000Y117602000D03*
X118745000Y117602000D03*
X123825000Y117602000D03*
X128905000Y117602000D03*
X133985000Y117602000D03*
X139065000Y117602000D03*
D42*
X141605000Y3810000D03*
D43*
X136525000Y3810000D03*
X131445000Y3810000D03*
X126365000Y3810000D03*
X121285000Y3810000D03*
X116205000Y3810000D03*
X111125000Y3810000D03*
X106045000Y3810000D03*
X100965000Y3810000D03*
X95885000Y3810000D03*
X90805000Y3810000D03*
X85725000Y3810000D03*
D42*
X178435000Y92075000D03*
D44*
X178435000Y86995000D03*
X178435000Y81915000D03*
X178435000Y76835000D03*
X178435000Y71755000D03*
X178435000Y66675000D03*
X178435000Y61595000D03*
X178435000Y56515000D03*
X178435000Y51435000D03*
X178435000Y46355000D03*
X178435000Y41275000D03*
X178435000Y36195000D03*
D16*
X68580000Y71120000D03*
X55245000Y71120000D03*
X69720000Y84455000D03*
X47120000Y84455000D03*
D12*
X73025000Y17780000D03*
X73025000Y10160000D03*
D26*
X159385000Y31115000D03*
D45*
X159385000Y28575000D03*
D46*
X161925000Y28575000D03*
D11*
X79375000Y109855000D03*
D12*
X74295000Y109855000D03*
X71120000Y58420000D03*
D11*
X71120000Y33020000D03*
X71120000Y43180000D03*
D12*
X71120000Y48260000D03*
D47*
X73025000Y119380000D03*
X74168000Y119380000D03*
X75311000Y119380000D03*
D35*
X53340000Y116840000D03*
D16*
X48260000Y116840000D03*
D35*
X41275000Y116205000D03*
D16*
X36195000Y116205000D03*
D23*
X10160000Y69215000D03*
X15240000Y66675000D03*
X5080000Y69215000D03*
X15240000Y71755000D03*
X12700000Y69215000D03*
D48*
X143764000Y81661000D03*
X143764000Y84201000D03*
X146304000Y81661000D03*
X146304000Y84201000D03*
X148844000Y81661000D03*
X148844000Y84201000D03*
X151384000Y81661000D03*
X151384000Y84201000D03*
X153924000Y81661000D03*
X153924000Y84201000D03*
X156464000Y81661000D03*
X156464000Y84201000D03*
X159004000Y81661000D03*
X159004000Y84201000D03*
X161544000Y81661000D03*
X161544000Y84201000D03*
X164084000Y81661000D03*
X166624000Y81661000D03*
X169164000Y81661000D03*
X164084000Y84201000D03*
X166624000Y84201000D03*
X169164000Y84201000D03*
X171704000Y84201000D03*
X171704000Y81661000D03*
D38*
X171704000Y84201000D03*
D39*
X171704000Y81661000D03*
X169164000Y84201000D03*
X169164000Y81661000D03*
X166624000Y84201000D03*
X166624000Y81661000D03*
X164084000Y84201000D03*
X164084000Y81661000D03*
X161544000Y84201000D03*
X161544000Y81661000D03*
X159004000Y84201000D03*
X159004000Y81661000D03*
X156464000Y84201000D03*
X156464000Y81661000D03*
X153924000Y84201000D03*
X153924000Y81661000D03*
X151384000Y84201000D03*
X151384000Y81661000D03*
X148844000Y84201000D03*
X148844000Y81661000D03*
X146304000Y84201000D03*
X146304000Y81661000D03*
X143764000Y84201000D03*
X143764000Y81661000D03*
D48*
X144145000Y40005000D03*
X144145000Y42545000D03*
X146685000Y40005000D03*
X146685000Y42545000D03*
X149225000Y40005000D03*
X149225000Y42545000D03*
X151765000Y40005000D03*
X151765000Y42545000D03*
X154305000Y40005000D03*
X154305000Y42545000D03*
X156845000Y40005000D03*
X156845000Y42545000D03*
X159385000Y40005000D03*
X159385000Y42545000D03*
X161925000Y40005000D03*
X161925000Y42545000D03*
X164465000Y40005000D03*
X167005000Y40005000D03*
X169545000Y40005000D03*
X164465000Y42545000D03*
X167005000Y42545000D03*
X169545000Y42545000D03*
X172085000Y42545000D03*
X172085000Y40005000D03*
D38*
X172085000Y42545000D03*
D39*
X172085000Y40005000D03*
X169545000Y42545000D03*
X169545000Y40005000D03*
X167005000Y42545000D03*
X167005000Y40005000D03*
X164465000Y42545000D03*
X164465000Y40005000D03*
X161925000Y42545000D03*
X161925000Y40005000D03*
X159385000Y42545000D03*
X159385000Y40005000D03*
X156845000Y42545000D03*
X156845000Y40005000D03*
X154305000Y42545000D03*
X154305000Y40005000D03*
X151765000Y42545000D03*
X151765000Y40005000D03*
X149225000Y42545000D03*
X149225000Y40005000D03*
X146685000Y42545000D03*
X146685000Y40005000D03*
X144145000Y42545000D03*
X144145000Y40005000D03*
D49*
X128524000Y37846000D03*
X131064000Y37846000D03*
X128524000Y35306000D03*
X131064000Y35306000D03*
X128524000Y32766000D03*
X131064000Y32766000D03*
X128524000Y30226000D03*
X131064000Y30226000D03*
X128524000Y27686000D03*
X131064000Y27686000D03*
X128524000Y25146000D03*
X131064000Y25146000D03*
X128524000Y22606000D03*
X131064000Y22606000D03*
X128524000Y20066000D03*
X131064000Y20066000D03*
X128524000Y17526000D03*
X128524000Y14986000D03*
X128524000Y12446000D03*
X131064000Y17526000D03*
X131064000Y14986000D03*
X131064000Y12446000D03*
X131064000Y9906000D03*
X128524000Y9906000D03*
D38*
X131064000Y9906000D03*
D39*
X128524000Y9906000D03*
X131064000Y12446000D03*
X128524000Y12446000D03*
X131064000Y14986000D03*
X128524000Y14986000D03*
X131064000Y17526000D03*
X128524000Y17526000D03*
X131064000Y20066000D03*
X128524000Y20066000D03*
X131064000Y22606000D03*
X128524000Y22606000D03*
X131064000Y25146000D03*
X128524000Y25146000D03*
X131064000Y27686000D03*
X128524000Y27686000D03*
X131064000Y30226000D03*
X128524000Y30226000D03*
X131064000Y32766000D03*
X128524000Y32766000D03*
X131064000Y35306000D03*
X128524000Y35306000D03*
X131064000Y37846000D03*
X128524000Y37846000D03*
D49*
X85725000Y37846000D03*
X88265000Y37846000D03*
X85725000Y35306000D03*
X88265000Y35306000D03*
X85725000Y32766000D03*
X88265000Y32766000D03*
X85725000Y30226000D03*
X88265000Y30226000D03*
X85725000Y27686000D03*
X88265000Y27686000D03*
X85725000Y25146000D03*
X88265000Y25146000D03*
X85725000Y22606000D03*
X88265000Y22606000D03*
X85725000Y20066000D03*
X88265000Y20066000D03*
X85725000Y17526000D03*
X85725000Y14986000D03*
X85725000Y12446000D03*
X88265000Y17526000D03*
X88265000Y14986000D03*
X88265000Y12446000D03*
X88265000Y9906000D03*
X85725000Y9906000D03*
D38*
X88265000Y9906000D03*
D39*
X85725000Y9906000D03*
X88265000Y12446000D03*
X85725000Y12446000D03*
X88265000Y14986000D03*
X85725000Y14986000D03*
X88265000Y17526000D03*
X85725000Y17526000D03*
X88265000Y20066000D03*
X85725000Y20066000D03*
X88265000Y22606000D03*
X85725000Y22606000D03*
X88265000Y25146000D03*
X85725000Y25146000D03*
X88265000Y27686000D03*
X85725000Y27686000D03*
X88265000Y30226000D03*
X85725000Y30226000D03*
X88265000Y32766000D03*
X85725000Y32766000D03*
X88265000Y35306000D03*
X85725000Y35306000D03*
X88265000Y37846000D03*
X85725000Y37846000D03*
D49*
X96520000Y81280000D03*
X93980000Y81280000D03*
X96520000Y83820000D03*
X93980000Y83820000D03*
X96520000Y86360000D03*
X93980000Y86360000D03*
X96520000Y88900000D03*
X93980000Y88900000D03*
X96520000Y91440000D03*
X93980000Y91440000D03*
X96520000Y93980000D03*
X93980000Y93980000D03*
X96520000Y96520000D03*
X93980000Y96520000D03*
X96520000Y99060000D03*
X93980000Y99060000D03*
X96520000Y101600000D03*
X96520000Y104140000D03*
X96520000Y106680000D03*
X93980000Y101600000D03*
X93980000Y104140000D03*
X93980000Y106680000D03*
X93980000Y109220000D03*
X96520000Y109220000D03*
D38*
X93980000Y109220000D03*
D39*
X96520000Y109220000D03*
X93980000Y106680000D03*
X96520000Y106680000D03*
X93980000Y104140000D03*
X96520000Y104140000D03*
X93980000Y101600000D03*
X96520000Y101600000D03*
X93980000Y99060000D03*
X96520000Y99060000D03*
X93980000Y96520000D03*
X96520000Y96520000D03*
X93980000Y93980000D03*
X96520000Y93980000D03*
X93980000Y91440000D03*
X96520000Y91440000D03*
X93980000Y88900000D03*
X96520000Y88900000D03*
X93980000Y86360000D03*
X96520000Y86360000D03*
X93980000Y83820000D03*
X96520000Y83820000D03*
X93980000Y81280000D03*
X96520000Y81280000D03*
D49*
X139700000Y81407000D03*
X137160000Y81407000D03*
X139700000Y83947000D03*
X137160000Y83947000D03*
X139700000Y86487000D03*
X137160000Y86487000D03*
X139700000Y89027000D03*
X137160000Y89027000D03*
X139700000Y91567000D03*
X137160000Y91567000D03*
X139700000Y94107000D03*
X137160000Y94107000D03*
X139700000Y96647000D03*
X137160000Y96647000D03*
X139700000Y99187000D03*
X137160000Y99187000D03*
X139700000Y101727000D03*
X139700000Y104267000D03*
X139700000Y106807000D03*
X137160000Y101727000D03*
X137160000Y104267000D03*
X137160000Y106807000D03*
X137160000Y109347000D03*
X139700000Y109347000D03*
D38*
X137160000Y109347000D03*
D39*
X139700000Y109347000D03*
X137160000Y106807000D03*
X139700000Y106807000D03*
X137160000Y104267000D03*
X139700000Y104267000D03*
X137160000Y101727000D03*
X139700000Y101727000D03*
X137160000Y99187000D03*
X139700000Y99187000D03*
X137160000Y96647000D03*
X139700000Y96647000D03*
X137160000Y94107000D03*
X139700000Y94107000D03*
X137160000Y91567000D03*
X139700000Y91567000D03*
X137160000Y89027000D03*
X139700000Y89027000D03*
X137160000Y86487000D03*
X139700000Y86487000D03*
X137160000Y83947000D03*
X139700000Y83947000D03*
X137160000Y81407000D03*
X139700000Y81407000D03*
D11*
X29845000Y85090000D03*
D12*
X29845000Y80010000D03*
D11*
X79375000Y88265000D03*
D12*
X74295000Y88265000D03*
M02*
