M48
;DRILL file {KiCad 4.0.4-stable} date 08/14/17 17:15:20
;FORMAT={-:-/ absolute / inch / decimal}
FMAT,2
INCH,TZ
T1C0.016
T2C0.031
T3C0.032
T4C0.032
T5C0.039
T6C0.039
T7C0.040
T8C0.047
T9C0.051
T10C0.055
T11C0.055
T12C0.059
T13C0.118
T14C0.157
%
G90
G05
M72
T1
X1.14Y1.655
X1.15Y0.925
X1.195Y1.59
X1.24Y1.07
X1.35Y0.97
X1.4Y3.175
X1.4Y3.1
X1.475Y3.175
X1.475Y3.1
X1.475Y3.025
X1.475Y1.06
X2.1Y2.7
X3.005Y1.93
X3.075Y2.35
X3.205Y2.
X3.755Y1.24
X3.755Y1.24
X3.855Y1.18
X3.855Y1.18
X3.95Y1.11
X3.95Y1.11
X3.97Y4.205
X4.055Y1.045
X4.055Y1.045
X4.165Y0.99
X4.165Y0.99
X4.23Y1.63
X4.245Y4.105
X4.25Y0.89
X4.25Y0.89
X4.295Y4.005
X4.36Y0.79
X4.36Y0.79
X4.4Y3.905
X4.465Y0.69
X4.465Y0.69
X4.49Y3.805
X4.57Y0.59
X4.57Y0.59
X4.595Y3.705
X4.625Y1.565
X4.69Y3.63
X4.8Y0.49
X4.8Y0.49
X4.81Y3.575
X4.89Y3.52
X4.955Y1.63
X4.995Y3.455
X5.425Y1.565
X5.96Y1.93
X6.025Y2.03
X6.09Y2.13
X6.155Y2.23
X6.21Y2.615
X6.265Y2.77
X6.315Y2.9
X6.365Y2.97
X6.45Y3.025
X6.615Y3.08
T2
X0.65Y2.075
X0.65Y1.975
X0.65Y1.875
X0.65Y1.775
X0.65Y1.675
X0.65Y1.575
X0.65Y1.475
X0.65Y1.375
X0.65Y1.025
X0.65Y0.925
X0.65Y0.825
X0.65Y0.725
X0.65Y0.625
X0.65Y0.525
X0.65Y0.425
X0.65Y0.325
X0.95Y2.075
X0.95Y1.975
X0.95Y1.875
X0.95Y1.775
X0.95Y1.675
X0.95Y1.575
X0.95Y1.475
X0.95Y1.375
X0.95Y1.025
X0.95Y0.925
X0.95Y0.825
X0.95Y0.725
X0.95Y0.625
X0.95Y0.525
X0.95Y0.425
X0.95Y0.325
X1.95Y1.925
X1.95Y1.825
X1.95Y1.725
X1.95Y1.625
X1.95Y1.525
X1.95Y1.425
X1.95Y1.325
X1.95Y1.225
X2.25Y1.925
X2.25Y1.825
X2.25Y1.725
X2.25Y1.625
X2.25Y1.525
X2.25Y1.425
X2.25Y1.325
X2.25Y1.225
T3
X0.625Y3.35
X0.725Y1.225
X0.925Y3.35
X0.925Y1.225
X1.175Y3.35
X1.175Y3.15
X1.525Y2.6
X1.525Y2.3
X1.625Y1.8
X1.625Y1.6
X1.65Y2.55
X1.65Y2.25
X1.675Y2.05
X1.675Y1.95
X1.75Y1.8
X1.75Y1.5
X1.75Y1.375
X1.75Y1.075
X1.775Y2.55
X1.775Y2.25
X1.775Y2.05
X1.775Y0.7
X1.775Y0.4
X1.875Y2.95
X1.875Y2.75
X1.875Y0.7
X1.875Y0.4
X2.Y2.075
X2.025Y0.8
X2.025Y0.6
X2.2Y2.075
X2.4Y2.425
X2.4Y2.225
X2.525Y2.525
X2.525Y2.225
X2.7Y0.8
X2.7Y0.6
X2.8Y2.3
X2.8Y1.9
X2.8Y1.7
X2.8Y1.3
X2.875Y0.7
X2.875Y0.4
X2.925Y4.325
X2.925Y3.925
X2.925Y3.475
X3.025Y1.175
X3.05Y1.725
X3.05Y1.425
X3.125Y4.325
X3.125Y3.925
X3.125Y3.475
X3.125Y1.275
X3.125Y1.175
X3.275Y4.305
X3.275Y4.205
X3.275Y4.105
X3.275Y4.005
X3.275Y3.905
X3.275Y3.805
X3.275Y3.705
X3.275Y3.605
X3.275Y3.505
X3.275Y3.405
X3.275Y3.305
X3.275Y3.205
X3.46Y1.7
X3.575Y4.305
X3.575Y4.205
X3.575Y4.105
X3.575Y4.005
X3.575Y3.905
X3.575Y3.805
X3.575Y3.705
X3.575Y3.605
X3.575Y3.505
X3.575Y3.405
X3.575Y3.305
X3.575Y3.205
X3.76Y1.7
X5.285Y1.49
X5.285Y1.39
X5.285Y1.29
X5.285Y1.19
X5.285Y1.09
X5.285Y0.99
X5.285Y0.89
X5.285Y0.79
X5.285Y0.69
X5.285Y0.59
X5.285Y0.49
X5.285Y0.39
X5.585Y1.49
X5.585Y1.39
X5.585Y1.29
X5.585Y1.19
X5.585Y1.09
X5.585Y0.99
X5.585Y0.89
X5.585Y0.79
X5.585Y0.69
X5.585Y0.59
X5.585Y0.49
X5.585Y0.39
X5.66Y3.74
X5.66Y3.44
X5.76Y3.74
X5.76Y3.44
X5.86Y3.74
X5.86Y3.44
X5.96Y3.74
X5.96Y3.44
X6.005Y4.425
X6.005Y4.125
X6.025Y0.75
X6.025Y0.45
X6.06Y3.74
X6.06Y3.44
X6.105Y4.425
X6.105Y4.125
X6.125Y0.75
X6.125Y0.45
X6.16Y3.74
X6.16Y3.44
X6.205Y4.425
X6.205Y4.125
X6.225Y0.75
X6.225Y0.45
X6.26Y3.74
X6.26Y3.44
X6.275Y1.225
X6.275Y1.125
X6.305Y4.425
X6.305Y4.125
X6.325Y0.75
X6.325Y0.45
X6.36Y3.74
X6.36Y3.44
X6.375Y1.125
X6.46Y3.74
X6.46Y3.44
X6.55Y1.3
X6.55Y1.
X6.56Y3.74
X6.56Y3.44
X6.66Y3.74
X6.66Y3.44
X6.76Y3.74
X6.76Y3.44
T4
X1.95Y2.55
X1.95Y2.45
X1.95Y2.35
X1.95Y2.25
X2.1875Y0.8625
X2.1875Y0.5625
X2.25Y2.55
X2.25Y2.45
X2.25Y2.35
X2.25Y2.25
X2.2875Y0.8625
X2.2875Y0.5625
X2.3875Y0.8625
X2.3875Y0.5625
X2.4875Y0.8625
X2.4875Y0.5625
X3.435Y2.225
X3.435Y2.125
X3.435Y1.975
X3.435Y1.875
X3.71Y2.225
X3.71Y2.125
X3.71Y1.975
X3.71Y1.875
X5.83Y4.675
X5.83Y4.575
X5.9Y0.3
X5.9Y0.2
X6.08Y4.675
X6.08Y4.575
X6.175Y0.3
X6.175Y0.2
X6.33Y4.675
X6.33Y4.575
X6.45Y0.3
X6.45Y0.2
X6.58Y4.675
X6.58Y4.575
X6.725Y0.3
X6.725Y0.2
T5
X0.2Y2.725
X0.4Y2.725
X0.5Y2.725
X0.6Y2.825
X0.6Y2.625
X3.94Y2.045
X3.94Y1.945
X3.94Y1.845
X3.94Y1.745
T6
X1.575Y3.1667
X1.575Y3.0959
X1.575Y3.025
X1.575Y2.9541
X1.575Y2.8833
X1.625Y1.45
X1.625Y1.08
X2.3333Y4.675
X2.4041Y4.675
X2.475Y4.675
X2.5459Y4.675
X2.6167Y4.675
T7
X0.2Y2.425
X0.2Y2.15
X0.2Y2.05
X0.2Y1.95
X0.2Y1.85
X0.2Y1.75
X0.2Y1.65
X0.2Y1.55
X0.2Y1.45
X0.2Y1.275
X0.2Y1.125
X0.2Y1.025
X0.2Y0.925
X0.2Y0.825
X0.2Y0.725
X0.2Y0.625
X0.2Y0.525
X0.2Y0.425
X0.3Y2.425
X0.3Y2.15
X0.3Y2.05
X0.3Y1.95
X0.3Y1.85
X0.3Y1.75
X0.3Y1.65
X0.3Y1.55
X0.3Y1.45
X0.3Y1.275
X0.3Y1.125
X0.3Y1.025
X0.3Y0.925
X0.3Y0.825
X0.3Y0.725
X0.3Y0.625
X0.3Y0.525
X0.3Y0.425
X0.8Y3.025
X0.8Y2.925
X0.8Y2.825
X0.8Y2.725
X0.8Y2.625
X0.8Y2.525
X0.8Y2.425
X0.8Y2.325
X1.45Y4.1
X1.45Y4.
X1.45Y3.9
X1.55Y4.1
X1.55Y4.
X1.55Y3.9
X2.2Y0.25
X2.2Y0.15
X2.3Y0.25
X2.3Y0.15
X2.4Y0.25
X2.4Y0.15
X2.5Y0.25
X2.5Y0.15
X3.35Y3.025
X3.35Y2.925
X3.35Y2.775
X3.35Y2.675
X3.35Y2.525
X3.35Y2.425
X3.375Y1.49
X3.375Y1.39
X3.375Y1.29
X3.375Y1.19
X3.375Y1.09
X3.375Y0.99
X3.375Y0.89
X3.375Y0.79
X3.375Y0.69
X3.375Y0.59
X3.375Y0.49
X3.375Y0.39
X3.45Y3.025
X3.45Y2.925
X3.45Y2.775
X3.45Y2.675
X3.45Y2.525
X3.45Y2.425
X3.475Y1.49
X3.475Y1.39
X3.475Y1.29
X3.475Y1.19
X3.475Y1.09
X3.475Y0.99
X3.475Y0.89
X3.475Y0.79
X3.475Y0.69
X3.475Y0.59
X3.475Y0.49
X3.475Y0.39
X3.55Y3.025
X3.55Y2.925
X3.55Y2.775
X3.55Y2.675
X3.55Y2.525
X3.55Y2.425
X3.65Y3.025
X3.65Y2.925
X3.65Y2.775
X3.65Y2.675
X3.65Y2.525
X3.65Y2.425
X3.675Y1.49
X3.675Y1.39
X3.7Y4.3
X3.7Y4.2
X3.7Y4.1
X3.7Y4.
X3.7Y3.9
X3.7Y3.8
X3.7Y3.7
X3.7Y3.6
X3.7Y3.5
X3.7Y3.4
X3.7Y3.3
X3.7Y3.2
X3.75Y3.025
X3.75Y2.925
X3.75Y2.775
X3.75Y2.675
X3.75Y2.525
X3.75Y2.425
X3.775Y1.49
X3.775Y1.39
X3.8Y4.3
X3.8Y4.2
X3.8Y4.1
X3.8Y4.
X3.8Y3.9
X3.8Y3.8
X3.8Y3.7
X3.8Y3.6
X3.8Y3.5
X3.8Y3.4
X3.8Y3.3
X3.8Y3.2
X3.85Y3.025
X3.85Y2.925
X3.85Y2.775
X3.85Y2.675
X3.85Y2.525
X3.85Y2.425
X3.875Y1.49
X3.875Y1.39
X3.95Y3.025
X3.95Y2.925
X3.95Y2.775
X3.95Y2.675
X3.95Y2.525
X3.95Y2.425
X3.975Y1.49
X3.975Y1.39
X4.025Y3.305
X4.025Y3.205
X4.05Y3.025
X4.05Y2.925
X4.05Y2.775
X4.05Y2.675
X4.05Y2.525
X4.05Y2.425
X4.075Y1.49
X4.075Y1.39
X4.125Y3.305
X4.125Y3.205
X4.175Y1.49
X4.175Y1.39
X4.225Y3.305
X4.225Y3.205
X4.225Y3.025
X4.225Y2.925
X4.225Y2.825
X4.225Y2.725
X4.225Y2.625
X4.225Y2.525
X4.225Y2.425
X4.225Y2.325
X4.225Y2.225
X4.225Y2.125
X4.225Y2.025
X4.225Y1.925
X4.225Y1.825
X4.225Y1.725
X4.275Y1.49
X4.275Y1.39
X4.325Y3.305
X4.325Y3.205
X4.325Y3.025
X4.325Y2.925
X4.325Y2.825
X4.325Y2.725
X4.325Y2.625
X4.325Y2.525
X4.325Y2.425
X4.325Y2.325
X4.325Y2.225
X4.325Y2.125
X4.325Y2.025
X4.325Y1.925
X4.325Y1.825
X4.325Y1.725
X4.375Y1.49
X4.375Y1.39
X4.425Y3.305
X4.425Y3.205
X4.425Y3.025
X4.425Y2.925
X4.425Y2.825
X4.425Y2.725
X4.425Y2.625
X4.425Y2.525
X4.425Y2.425
X4.425Y2.325
X4.425Y2.225
X4.425Y2.125
X4.425Y2.025
X4.425Y1.925
X4.425Y1.825
X4.425Y1.725
X4.475Y1.49
X4.475Y1.39
X4.525Y3.305
X4.525Y3.205
X4.525Y3.025
X4.525Y2.925
X4.525Y2.825
X4.525Y2.725
X4.525Y2.625
X4.525Y2.525
X4.525Y2.425
X4.525Y2.325
X4.525Y2.225
X4.525Y2.125
X4.525Y2.025
X4.525Y1.925
X4.525Y1.825
X4.525Y1.725
X4.575Y1.49
X4.575Y1.39
X4.625Y3.305
X4.625Y3.205
X4.625Y3.025
X4.625Y2.925
X4.625Y2.825
X4.625Y2.725
X4.625Y2.625
X4.625Y2.525
X4.625Y2.425
X4.625Y2.325
X4.625Y2.225
X4.625Y2.125
X4.625Y2.025
X4.625Y1.925
X4.625Y1.825
X4.625Y1.725
X4.675Y1.49
X4.675Y1.39
X4.725Y3.305
X4.725Y3.205
X4.725Y3.025
X4.725Y2.925
X4.725Y2.825
X4.725Y2.725
X4.725Y2.625
X4.725Y2.525
X4.725Y2.425
X4.725Y2.325
X4.725Y2.225
X4.725Y2.125
X4.725Y2.025
X4.725Y1.925
X4.725Y1.825
X4.725Y1.725
X4.775Y1.49
X4.775Y1.39
X4.825Y3.305
X4.825Y3.205
X4.825Y3.025
X4.825Y2.925
X4.825Y2.825
X4.825Y2.725
X4.825Y2.625
X4.825Y2.525
X4.825Y2.425
X4.825Y2.325
X4.825Y2.225
X4.825Y2.125
X4.825Y2.025
X4.825Y1.925
X4.825Y1.825
X4.825Y1.725
X4.925Y3.305
X4.925Y3.205
X4.925Y3.025
X4.925Y2.925
X4.925Y2.825
X4.925Y2.725
X4.925Y2.625
X4.925Y2.525
X4.925Y2.425
X4.925Y2.325
X4.925Y2.225
X4.925Y2.125
X4.925Y2.025
X4.925Y1.925
X4.925Y1.825
X4.925Y1.725
X5.025Y3.305
X5.025Y3.205
X5.025Y3.025
X5.025Y2.925
X5.025Y2.825
X5.025Y2.725
X5.025Y2.625
X5.025Y2.525
X5.025Y2.425
X5.025Y2.325
X5.025Y2.225
X5.025Y2.125
X5.025Y2.025
X5.025Y1.925
X5.025Y1.825
X5.025Y1.725
X5.06Y1.49
X5.06Y1.39
X5.06Y1.29
X5.06Y1.19
X5.06Y1.09
X5.06Y0.99
X5.06Y0.89
X5.06Y0.79
X5.06Y0.69
X5.06Y0.59
X5.06Y0.49
X5.06Y0.39
X5.125Y3.305
X5.125Y3.205
X5.125Y3.025
X5.125Y2.925
X5.125Y2.825
X5.125Y2.725
X5.125Y2.625
X5.125Y2.525
X5.125Y2.425
X5.125Y2.325
X5.125Y2.225
X5.125Y2.125
X5.125Y2.025
X5.125Y1.925
X5.125Y1.825
X5.125Y1.725
X5.16Y1.49
X5.16Y1.39
X5.16Y1.29
X5.16Y1.19
X5.16Y1.09
X5.16Y0.99
X5.16Y0.89
X5.16Y0.79
X5.16Y0.69
X5.16Y0.59
X5.16Y0.49
X5.16Y0.39
X5.225Y3.025
X5.225Y2.925
X5.225Y2.825
X5.225Y2.725
X5.225Y2.625
X5.225Y2.525
X5.225Y2.425
X5.225Y2.325
X5.225Y2.225
X5.225Y2.125
X5.225Y2.025
X5.225Y1.925
X5.225Y1.825
X5.225Y1.725
X5.325Y3.025
X5.325Y2.925
X5.325Y2.825
X5.325Y2.725
X5.325Y2.625
X5.325Y2.525
X5.325Y2.425
X5.325Y2.325
X5.325Y2.225
X5.325Y2.125
X5.325Y2.025
X5.325Y1.925
X5.325Y1.825
X5.325Y1.725
X5.4Y4.305
X5.4Y4.205
X5.4Y4.105
X5.4Y4.005
X5.4Y3.905
X5.4Y3.805
X5.4Y3.705
X5.4Y3.605
X5.4Y3.505
X5.4Y3.405
X5.4Y3.305
X5.4Y3.205
X5.425Y3.025
X5.425Y2.925
X5.425Y2.825
X5.425Y2.725
X5.425Y2.625
X5.425Y2.525
X5.425Y2.425
X5.425Y2.325
X5.425Y2.225
X5.425Y2.125
X5.425Y2.025
X5.425Y1.925
X5.425Y1.825
X5.425Y1.725
X5.5Y4.305
X5.5Y4.205
X5.5Y4.105
X5.5Y4.005
X5.5Y3.905
X5.5Y3.805
X5.5Y3.705
X5.5Y3.605
X5.5Y3.505
X5.5Y3.405
X5.5Y3.305
X5.5Y3.205
X5.525Y3.025
X5.525Y2.925
X5.525Y2.825
X5.525Y2.725
X5.525Y2.625
X5.525Y2.525
X5.525Y2.425
X5.525Y2.325
X5.525Y2.225
X5.525Y2.125
X5.525Y2.025
X5.525Y1.925
X5.525Y1.825
X5.525Y1.725
X5.66Y3.315
X5.66Y3.215
X5.675Y1.675
X5.675Y1.575
X5.71Y2.93
X5.71Y2.83
X5.71Y2.73
X5.71Y2.63
X5.71Y2.53
X5.71Y2.43
X5.71Y2.33
X5.71Y2.23
X5.71Y2.13
X5.71Y2.03
X5.71Y1.93
X5.71Y1.83
X5.76Y3.315
X5.76Y3.215
X5.775Y1.675
X5.775Y1.575
X5.8Y1.325
X5.8Y1.225
X5.8Y1.125
X5.8Y1.025
X5.81Y2.93
X5.81Y2.83
X5.81Y2.73
X5.81Y2.63
X5.81Y2.53
X5.81Y2.43
X5.81Y2.33
X5.81Y2.23
X5.81Y2.13
X5.81Y2.03
X5.81Y1.93
X5.81Y1.83
X5.86Y3.315
X5.86Y3.215
X5.875Y1.675
X5.875Y1.575
X5.96Y3.315
X5.96Y3.215
X5.975Y1.675
X5.975Y1.575
X6.005Y3.975
X6.025Y0.875
X6.06Y3.315
X6.06Y3.215
X6.075Y1.675
X6.075Y1.575
X6.105Y3.975
X6.125Y0.875
X6.16Y3.315
X6.16Y3.215
X6.175Y1.675
X6.175Y1.575
X6.205Y3.975
X6.225Y0.875
X6.26Y3.315
X6.26Y3.215
X6.275Y1.675
X6.275Y1.575
X6.305Y3.975
X6.325Y0.875
X6.36Y3.315
X6.36Y3.215
X6.375Y1.675
X6.375Y1.575
X6.46Y3.315
X6.46Y3.215
X6.475Y1.675
X6.475Y1.575
X6.56Y3.315
X6.56Y3.215
X6.575Y1.675
X6.575Y1.575
X6.66Y3.315
X6.66Y3.215
X6.675Y1.675
X6.675Y1.575
X6.76Y3.315
X6.76Y3.215
X6.775Y1.675
X6.775Y1.575
T8
X0.15Y3.8
X0.15Y3.6
X0.15Y3.4
X0.925Y4.625
X0.925Y3.825
X2.35Y4.1476
X2.35Y3.8524
X2.725Y4.625
X2.725Y4.225
T9
X1.15Y4.575
X1.15Y4.3742
X1.15Y4.1734
X1.15Y3.9726
T10
X0.575Y4.6699
X0.575Y3.7801
X1.8551Y3.325
X2.7449Y3.325
T11
X3.275Y4.63
X3.375Y0.15
X3.475Y4.63
X3.575Y0.15
X3.675Y4.63
X3.775Y0.15
X3.875Y4.63
X3.975Y0.15
X4.075Y4.63
X4.175Y0.15
X4.275Y4.63
X4.375Y0.15
X4.475Y4.63
X4.575Y0.15
X4.675Y4.63
X4.775Y0.15
X4.875Y4.63
X4.975Y0.15
X5.075Y4.63
X5.175Y0.15
X5.275Y4.63
X5.375Y0.15
X5.475Y4.63
X5.575Y0.15
X7.025Y3.625
X7.025Y3.425
X7.025Y3.225
X7.025Y3.025
X7.025Y2.825
X7.025Y2.625
X7.025Y2.425
X7.025Y2.225
X7.025Y2.025
X7.025Y1.825
X7.025Y1.625
X7.025Y1.425
T12
X1.425Y4.575
X1.625Y4.575
X1.8Y4.2
X1.8Y3.675
X1.9Y4.6
X2.1Y4.6
X2.175Y2.8
X2.7Y2.8
T13
X0.2602Y4.5531
X0.2602Y0.2224
X0.475Y3.175
X0.825Y3.525
X1.1878Y2.7463
X1.1878Y0.4628
X1.5421Y3.4746
X2.5461Y1.3289
X3.1169Y2.7463
X3.1169Y0.4628
X6.9531Y4.5531
X6.9531Y0.2224
T14
X0.5063Y2.3878
X1.5693Y0.6161
X6.7071Y2.3878
T0
M30
