M48
;DRILL file {KiCad 4.0.0-rc2-stable} date 21/12/2015 14:28:06
;FORMAT={-:-/ absolute / metric / decimal}
FMAT,2
METRIC,TZ
T1C0.400
T2C0.800
T3C0.800
T4C0.813
T5C1.000
T6C1.001
T7C1.016
T8C1.200
T9C1.300
T10C1.397
T11C1.400
%
G90
G05
M71
T1
X100.076Y-115.443
X101.473Y-117.094
X102.616Y-130.302
X105.41Y-132.842
X105.41Y-138.938
X106.68Y-76.835
X106.68Y-78.74
X108.585Y-76.835
X108.585Y-78.74
X108.585Y-80.645
X108.585Y-130.556
X124.46Y-88.9
X134.239Y-50.927
X135.255Y-50.038
X135.382Y-52.324
X147.447Y-108.458
X152.527Y-106.68
X166.497Y-125.984
X166.497Y-125.984
X169.037Y-127.508
X169.037Y-127.508
X171.45Y-129.286
X171.45Y-129.286
X171.958Y-50.673
X174.117Y-130.937
X174.117Y-130.937
X176.911Y-132.334
X176.911Y-132.334
X178.943Y-53.213
X179.07Y-134.874
X179.07Y-134.874
X180.213Y-55.753
X181.864Y-137.414
X181.864Y-137.414
X182.88Y-58.293
X184.531Y-139.954
X184.531Y-139.954
X185.166Y-60.833
X187.198Y-142.494
X187.198Y-142.494
X187.833Y-63.373
X190.246Y-65.278
X193.04Y-145.034
X193.04Y-145.034
X193.294Y-66.675
X195.326Y-68.072
X197.993Y-69.723
X222.504Y-108.458
X224.155Y-105.918
X225.806Y-103.378
X227.457Y-100.838
X228.854Y-91.059
X230.251Y-87.122
X231.521Y-83.82
X232.791Y-82.042
X234.95Y-80.645
X239.141Y-79.248
T2
X87.63Y-104.775
X87.63Y-107.315
X87.63Y-109.855
X87.63Y-112.395
X87.63Y-114.935
X87.63Y-117.475
X87.63Y-120.015
X87.63Y-122.555
X87.63Y-131.445
X87.63Y-133.985
X87.63Y-136.525
X87.63Y-139.065
X87.63Y-141.605
X87.63Y-144.145
X87.63Y-146.685
X87.63Y-149.225
X95.25Y-104.775
X95.25Y-107.315
X95.25Y-109.855
X95.25Y-112.395
X95.25Y-114.935
X95.25Y-117.475
X95.25Y-120.015
X95.25Y-122.555
X95.25Y-131.445
X95.25Y-133.985
X95.25Y-136.525
X95.25Y-139.065
X95.25Y-141.605
X95.25Y-144.145
X95.25Y-146.685
X95.25Y-149.225
X120.65Y-108.585
X120.65Y-111.125
X120.65Y-113.665
X120.65Y-116.205
X120.65Y-118.745
X120.65Y-121.285
X120.65Y-123.825
X120.65Y-126.365
X128.27Y-108.585
X128.27Y-111.125
X128.27Y-113.665
X128.27Y-116.205
X128.27Y-118.745
X128.27Y-121.285
X128.27Y-123.825
X128.27Y-126.365
T3
X89.535Y-126.365
X94.615Y-126.365
X102.87Y-67.31
X102.87Y-77.47
X102.87Y-82.55
X102.87Y-92.71
X109.855Y-91.44
X109.855Y-99.06
X112.395Y-111.76
X112.395Y-116.84
X113.03Y-92.71
X113.03Y-100.33
X113.665Y-105.41
X113.665Y-107.95
X115.57Y-111.76
X115.57Y-119.38
X115.57Y-122.555
X115.57Y-130.175
X116.205Y-92.71
X116.205Y-100.33
X116.205Y-105.41
X118.745Y-82.55
X118.745Y-87.63
X121.92Y-104.775
X122.555Y-137.16
X122.555Y-142.24
X123.19Y-69.215
X123.19Y-78.74
X127.Y-104.775
X132.08Y-95.885
X132.08Y-100.965
X133.35Y-69.215
X133.35Y-78.74
X135.255Y-93.345
X135.255Y-100.965
X138.43Y-69.215
X138.43Y-78.74
X139.7Y-137.16
X139.7Y-142.24
X142.24Y-99.06
X142.24Y-109.22
X142.24Y-114.3
X142.24Y-124.46
X146.05Y-38.735
X146.05Y-48.895
X146.05Y-53.975
X146.05Y-64.135
X148.59Y-69.215
X148.59Y-78.74
X148.59Y-113.665
X148.59Y-121.285
X148.59Y-125.73
X148.59Y-128.27
X151.13Y-125.73
X152.4Y-48.133
X152.4Y-50.673
X152.4Y-53.213
X152.4Y-55.753
X152.4Y-58.293
X152.4Y-60.833
X152.4Y-63.373
X152.4Y-65.913
X152.4Y-68.453
X152.4Y-70.993
X152.4Y-73.533
X152.4Y-76.073
X160.02Y-48.133
X160.02Y-50.673
X160.02Y-53.213
X160.02Y-55.753
X160.02Y-58.293
X160.02Y-60.833
X160.02Y-63.373
X160.02Y-65.913
X160.02Y-68.453
X160.02Y-70.993
X160.02Y-73.533
X160.02Y-76.073
X160.655Y-114.3
X168.275Y-114.3
X205.359Y-119.634
X205.359Y-122.174
X205.359Y-124.714
X205.359Y-127.254
X205.359Y-129.794
X205.359Y-132.334
X205.359Y-134.874
X205.359Y-137.414
X205.359Y-139.954
X205.359Y-142.494
X205.359Y-145.034
X205.359Y-147.574
X212.979Y-119.634
X212.979Y-122.174
X212.979Y-124.714
X212.979Y-127.254
X212.979Y-129.794
X212.979Y-132.334
X212.979Y-134.874
X212.979Y-137.414
X212.979Y-139.954
X212.979Y-142.494
X212.979Y-145.034
X212.979Y-147.574
X216.154Y-62.484
X216.154Y-70.104
X218.694Y-62.484
X218.694Y-70.104
X221.234Y-62.484
X221.234Y-70.104
X223.647Y-45.085
X223.647Y-52.705
X223.774Y-62.484
X223.774Y-70.104
X224.155Y-138.43
X224.155Y-146.05
X226.187Y-45.085
X226.187Y-52.705
X226.314Y-62.484
X226.314Y-70.104
X226.695Y-138.43
X226.695Y-146.05
X228.727Y-45.085
X228.727Y-52.705
X228.854Y-62.484
X228.854Y-70.104
X229.235Y-138.43
X229.235Y-146.05
X230.505Y-126.365
X231.267Y-45.085
X231.267Y-52.705
X231.394Y-62.484
X231.394Y-70.104
X231.775Y-138.43
X231.775Y-146.05
X233.045Y-126.365
X233.045Y-128.905
X233.934Y-62.484
X233.934Y-70.104
X236.474Y-62.484
X236.474Y-70.104
X237.49Y-124.46
X237.49Y-132.08
X239.014Y-62.484
X239.014Y-70.104
X241.554Y-62.484
X241.554Y-70.104
X244.094Y-62.484
X244.094Y-70.104
T4
X120.65Y-92.71
X120.65Y-95.25
X120.65Y-97.79
X120.65Y-100.33
X126.682Y-135.572
X126.682Y-143.192
X128.27Y-92.71
X128.27Y-95.25
X128.27Y-97.79
X128.27Y-100.33
X129.222Y-135.572
X129.222Y-143.192
X131.762Y-135.572
X131.762Y-143.192
X134.302Y-135.572
X134.302Y-143.192
X160.02Y-100.965
X160.02Y-103.505
X160.02Y-107.315
X160.02Y-109.855
X167.005Y-100.965
X167.005Y-103.505
X167.005Y-107.315
X167.005Y-109.855
X219.202Y-38.735
X219.202Y-41.275
X220.98Y-149.86
X220.98Y-152.4
X225.552Y-38.735
X225.552Y-41.275
X227.965Y-149.86
X227.965Y-152.4
X231.902Y-38.735
X231.902Y-41.275
X234.95Y-149.86
X234.95Y-152.4
X238.252Y-38.735
X238.252Y-41.275
X241.935Y-149.86
X241.935Y-152.4
T5
X76.2Y-88.265
X84.074Y-88.265
X86.36Y-85.725
X86.36Y-90.805
X173.863Y-105.537
X173.863Y-108.077
X173.863Y-110.617
X173.863Y-113.157
T6
X111.125Y-77.045
X111.125Y-78.845
X111.125Y-80.645
X111.125Y-82.445
X111.125Y-84.245
X112.395Y-120.65
X112.395Y-130.048
X120.65Y-39.37
X125.73Y-39.37
X129.75Y-38.735
X131.55Y-38.735
X133.35Y-38.735
X135.15Y-38.735
X136.95Y-38.735
T7
X76.2Y-99.06
X76.2Y-104.775
X76.2Y-107.315
X76.2Y-109.855
X76.2Y-112.395
X76.2Y-114.935
X76.2Y-117.475
X76.2Y-120.015
X76.2Y-122.555
X76.2Y-127.
X76.2Y-131.445
X76.2Y-133.985
X76.2Y-136.525
X76.2Y-139.065
X76.2Y-141.605
X76.2Y-144.145
X76.2Y-146.685
X76.2Y-149.225
X78.74Y-99.06
X78.74Y-104.775
X78.74Y-107.315
X78.74Y-109.855
X78.74Y-112.395
X78.74Y-114.935
X78.74Y-117.475
X78.74Y-120.015
X78.74Y-122.555
X78.74Y-127.
X78.74Y-131.445
X78.74Y-133.985
X78.74Y-136.525
X78.74Y-139.065
X78.74Y-141.605
X78.74Y-144.145
X78.74Y-146.685
X78.74Y-149.225
X91.44Y-80.645
X91.44Y-83.185
X91.44Y-85.725
X91.44Y-88.265
X91.44Y-90.805
X91.44Y-93.345
X91.44Y-95.885
X91.44Y-98.425
X127.Y-151.13
X127.Y-153.67
X129.54Y-151.13
X129.54Y-153.67
X132.08Y-151.13
X132.08Y-153.67
X134.62Y-151.13
X134.62Y-153.67
X156.21Y-80.645
X156.21Y-83.185
X156.21Y-86.995
X156.21Y-89.535
X156.21Y-93.345
X156.21Y-95.885
X156.845Y-119.634
X156.845Y-122.174
X156.845Y-124.714
X156.845Y-127.254
X156.845Y-129.794
X156.845Y-132.334
X156.845Y-134.874
X156.845Y-137.414
X156.845Y-139.954
X156.845Y-142.494
X156.845Y-145.034
X156.845Y-147.574
X158.75Y-80.645
X158.75Y-83.185
X158.75Y-86.995
X158.75Y-89.535
X158.75Y-93.345
X158.75Y-95.885
X159.385Y-119.634
X159.385Y-122.174
X159.385Y-124.714
X159.385Y-127.254
X159.385Y-129.794
X159.385Y-132.334
X159.385Y-134.874
X159.385Y-137.414
X159.385Y-139.954
X159.385Y-142.494
X159.385Y-145.034
X159.385Y-147.574
X161.29Y-80.645
X161.29Y-83.185
X161.29Y-86.995
X161.29Y-89.535
X161.29Y-93.345
X161.29Y-95.885
X163.195Y-48.133
X163.195Y-50.673
X163.195Y-53.213
X163.195Y-55.753
X163.195Y-58.293
X163.195Y-60.833
X163.195Y-63.373
X163.195Y-65.913
X163.195Y-68.453
X163.195Y-70.993
X163.195Y-73.533
X163.195Y-76.073
X163.83Y-80.645
X163.83Y-83.185
X163.83Y-86.995
X163.83Y-89.535
X163.83Y-93.345
X163.83Y-95.885
X164.465Y-119.634
X164.465Y-122.174
X165.735Y-48.133
X165.735Y-50.673
X165.735Y-53.213
X165.735Y-55.753
X165.735Y-58.293
X165.735Y-60.833
X165.735Y-63.373
X165.735Y-65.913
X165.735Y-68.453
X165.735Y-70.993
X165.735Y-73.533
X165.735Y-76.073
X166.37Y-80.645
X166.37Y-83.185
X166.37Y-86.995
X166.37Y-89.535
X166.37Y-93.345
X166.37Y-95.885
X167.005Y-119.634
X167.005Y-122.174
X168.91Y-80.645
X168.91Y-83.185
X168.91Y-86.995
X168.91Y-89.535
X168.91Y-93.345
X168.91Y-95.885
X169.545Y-119.634
X169.545Y-122.174
X171.45Y-80.645
X171.45Y-83.185
X171.45Y-86.995
X171.45Y-89.535
X171.45Y-93.345
X171.45Y-95.885
X172.085Y-119.634
X172.085Y-122.174
X173.355Y-73.533
X173.355Y-76.073
X173.99Y-80.645
X173.99Y-83.185
X173.99Y-86.995
X173.99Y-89.535
X173.99Y-93.345
X173.99Y-95.885
X174.625Y-119.634
X174.625Y-122.174
X175.895Y-73.533
X175.895Y-76.073
X177.165Y-119.634
X177.165Y-122.174
X178.435Y-73.533
X178.435Y-76.073
X179.07Y-82.55
X179.07Y-85.09
X179.07Y-87.63
X179.07Y-90.17
X179.07Y-92.71
X179.07Y-95.25
X179.07Y-97.79
X179.705Y-119.634
X179.705Y-122.174
X180.975Y-73.533
X180.975Y-76.073
X181.61Y-82.55
X181.61Y-85.09
X181.61Y-87.63
X181.61Y-90.17
X181.61Y-92.71
X181.61Y-95.25
X181.61Y-97.79
X182.245Y-119.634
X182.245Y-122.174
X183.515Y-73.533
X183.515Y-76.073
X184.15Y-82.55
X184.15Y-85.09
X184.15Y-87.63
X184.15Y-90.17
X184.15Y-92.71
X184.15Y-95.25
X184.15Y-97.79
X184.785Y-119.634
X184.785Y-122.174
X186.055Y-73.533
X186.055Y-76.073
X186.69Y-82.55
X186.69Y-85.09
X186.69Y-87.63
X186.69Y-90.17
X186.69Y-92.71
X186.69Y-95.25
X186.69Y-97.79
X187.325Y-119.634
X187.325Y-122.174
X188.595Y-73.533
X188.595Y-76.073
X189.23Y-82.55
X189.23Y-85.09
X189.23Y-87.63
X189.23Y-90.17
X189.23Y-92.71
X189.23Y-95.25
X189.23Y-97.79
X189.865Y-119.634
X189.865Y-122.174
X191.135Y-73.533
X191.135Y-76.073
X191.77Y-82.55
X191.77Y-85.09
X191.77Y-87.63
X191.77Y-90.17
X191.77Y-92.71
X191.77Y-95.25
X191.77Y-97.79
X192.405Y-119.634
X192.405Y-122.174
X193.675Y-73.533
X193.675Y-76.073
X194.31Y-82.55
X194.31Y-85.09
X194.31Y-87.63
X194.31Y-90.17
X194.31Y-92.71
X194.31Y-95.25
X194.31Y-97.79
X194.31Y-100.33
X194.31Y-102.87
X194.31Y-105.41
X194.31Y-107.95
X196.215Y-73.533
X196.215Y-76.073
X196.85Y-82.55
X196.85Y-85.09
X196.85Y-87.63
X196.85Y-90.17
X196.85Y-92.71
X196.85Y-95.25
X196.85Y-97.79
X196.85Y-100.33
X196.85Y-102.87
X196.85Y-105.41
X196.85Y-107.95
X198.755Y-73.533
X198.755Y-76.073
X199.39Y-82.55
X199.39Y-85.09
X199.39Y-87.63
X199.39Y-90.17
X199.39Y-92.71
X199.39Y-95.25
X199.39Y-97.79
X199.644Y-119.634
X199.644Y-122.174
X199.644Y-124.714
X199.644Y-127.254
X199.644Y-129.794
X199.644Y-132.334
X199.644Y-134.874
X199.644Y-137.414
X199.644Y-139.954
X199.644Y-142.494
X199.644Y-145.034
X199.644Y-147.574
X201.295Y-73.533
X201.295Y-76.073
X201.93Y-82.55
X201.93Y-85.09
X201.93Y-87.63
X201.93Y-90.17
X201.93Y-92.71
X201.93Y-95.25
X201.93Y-97.79
X202.184Y-119.634
X202.184Y-122.174
X202.184Y-124.714
X202.184Y-127.254
X202.184Y-129.794
X202.184Y-132.334
X202.184Y-134.874
X202.184Y-137.414
X202.184Y-139.954
X202.184Y-142.494
X202.184Y-145.034
X202.184Y-147.574
X204.47Y-82.55
X204.47Y-85.09
X204.47Y-87.63
X204.47Y-90.17
X204.47Y-92.71
X204.47Y-95.25
X204.47Y-97.79
X207.01Y-82.55
X207.01Y-85.09
X207.01Y-87.63
X207.01Y-90.17
X207.01Y-92.71
X207.01Y-95.25
X207.01Y-97.79
X208.28Y-48.133
X208.28Y-50.673
X208.28Y-53.213
X208.28Y-55.753
X208.28Y-58.293
X208.28Y-60.833
X208.28Y-63.373
X208.28Y-65.913
X208.28Y-68.453
X208.28Y-70.993
X208.28Y-73.533
X208.28Y-76.073
X209.55Y-82.55
X209.55Y-85.09
X209.55Y-87.63
X209.55Y-90.17
X209.55Y-92.71
X209.55Y-95.25
X209.55Y-97.79
X210.82Y-48.133
X210.82Y-50.673
X210.82Y-53.213
X210.82Y-55.753
X210.82Y-58.293
X210.82Y-60.833
X210.82Y-63.373
X210.82Y-65.913
X210.82Y-68.453
X210.82Y-70.993
X210.82Y-73.533
X210.82Y-76.073
X212.09Y-82.55
X212.09Y-85.09
X212.09Y-87.63
X212.09Y-90.17
X212.09Y-92.71
X212.09Y-95.25
X212.09Y-97.79
X216.154Y-73.279
X216.154Y-75.819
X216.154Y-83.058
X216.154Y-85.598
X216.154Y-88.138
X216.154Y-90.678
X216.154Y-93.218
X216.154Y-95.758
X216.154Y-98.298
X216.154Y-100.838
X216.154Y-103.378
X216.154Y-105.918
X216.154Y-108.458
X216.154Y-110.998
X216.154Y-116.078
X216.154Y-118.618
X218.44Y-123.825
X218.44Y-126.365
X218.44Y-128.905
X218.44Y-131.445
X218.694Y-73.279
X218.694Y-75.819
X218.694Y-83.058
X218.694Y-85.598
X218.694Y-88.138
X218.694Y-90.678
X218.694Y-93.218
X218.694Y-95.758
X218.694Y-98.298
X218.694Y-100.838
X218.694Y-103.378
X218.694Y-105.918
X218.694Y-108.458
X218.694Y-110.998
X218.694Y-116.078
X218.694Y-118.618
X221.234Y-73.279
X221.234Y-75.819
X221.234Y-116.078
X221.234Y-118.618
X223.647Y-56.515
X223.774Y-73.279
X223.774Y-75.819
X223.774Y-116.078
X223.774Y-118.618
X224.155Y-135.255
X226.187Y-56.515
X226.314Y-73.279
X226.314Y-75.819
X226.314Y-116.078
X226.314Y-118.618
X226.695Y-135.255
X228.727Y-56.515
X228.854Y-73.279
X228.854Y-75.819
X228.854Y-116.078
X228.854Y-118.618
X229.235Y-135.255
X231.267Y-56.515
X231.394Y-73.279
X231.394Y-75.819
X231.394Y-116.078
X231.394Y-118.618
X231.775Y-135.255
X233.934Y-73.279
X233.934Y-75.819
X233.934Y-116.078
X233.934Y-118.618
X236.474Y-73.279
X236.474Y-75.819
X236.474Y-116.078
X236.474Y-118.618
X239.014Y-73.279
X239.014Y-75.819
X239.014Y-116.078
X239.014Y-118.618
X241.554Y-73.279
X241.554Y-75.819
X241.554Y-116.078
X241.554Y-118.618
X244.094Y-73.279
X244.094Y-75.819
X244.094Y-116.078
X244.094Y-118.618
T8
X74.93Y-60.96
X74.93Y-66.04
X74.93Y-71.12
X94.615Y-40.005
X94.615Y-60.325
X110.49Y-41.275
X115.57Y-41.275
X130.81Y-49.59
X130.81Y-57.09
X140.335Y-40.005
X140.335Y-50.165
T9
X103.505Y-41.275
X103.505Y-46.99
X103.505Y-52.705
X103.505Y-58.42
X116.84Y-52.785
X116.84Y-62.785
X125.175Y-85.725
X135.175Y-85.725
T10
X85.725Y-38.865
X85.725Y-61.465
T11
X154.305Y-39.878
X154.305Y-152.654
X159.385Y-39.878
X159.385Y-152.654
X164.465Y-39.878
X164.465Y-152.654
X169.545Y-39.878
X169.545Y-152.654
X174.625Y-39.878
X174.625Y-152.654
X179.705Y-39.878
X179.705Y-152.654
X184.785Y-39.878
X184.785Y-152.654
X189.865Y-39.878
X189.865Y-152.654
X194.945Y-39.878
X194.945Y-152.654
X200.025Y-39.878
X200.025Y-152.654
X205.105Y-39.878
X205.105Y-152.654
X210.185Y-39.878
X210.185Y-152.654
X249.174Y-65.278
X249.174Y-70.358
X249.174Y-75.438
X249.174Y-80.518
X249.174Y-85.598
X249.174Y-90.678
X249.174Y-95.758
X249.174Y-100.838
X249.174Y-105.918
X249.174Y-110.998
X249.174Y-116.078
X249.174Y-121.158
T0
M30
