G04 #@! TF.FileFunction,Soldermask,Top*
%FSLAX46Y46*%
G04 Gerber Fmt 4.6, Leading zero omitted, Abs format (unit mm)*
G04 Created by KiCad (PCBNEW 4.0.1-stable) date 23/12/2015 09:15:47*
%MOMM*%
G01*
G04 APERTURE LIST*
%ADD10C,0.100000*%
%ADD11C,6.499860*%
%ADD12O,2.032000X1.727200*%
%ADD13R,2.032000X1.727200*%
%ADD14R,2.032000X2.032000*%
%ADD15C,2.032000*%
%ADD16C,1.905000*%
%ADD17R,2.100580X2.100580*%
%ADD18C,2.199640*%
%ADD19C,3.000000*%
%ADD20C,2.540000*%
%ADD21C,2.499360*%
%ADD22R,2.499360X2.499360*%
%ADD23C,1.600000*%
%ADD24R,1.400000X1.400000*%
%ADD25R,1.600000X1.600000*%
%ADD26C,1.700000*%
%ADD27R,1.574800X2.286000*%
%ADD28O,1.574800X2.286000*%
%ADD29C,6.000000*%
%ADD30O,2.286000X1.778000*%
%ADD31R,2.286000X1.778000*%
%ADD32R,2.500000X2.500000*%
%ADD33O,3.000000X2.500000*%
%ADD34O,2.500000X3.000000*%
%ADD35R,1.905000X1.905000*%
%ADD36R,1.727200X2.032000*%
%ADD37O,1.727200X2.032000*%
%ADD38R,3.000000X3.000000*%
%ADD39R,2.286000X1.574800*%
%ADD40O,2.286000X1.574800*%
%ADD41R,1.727200X1.727200*%
%ADD42O,1.727200X1.727200*%
%ADD43O,2.032000X2.032000*%
%ADD44C,2.500000*%
%ADD45C,2.400000*%
G04 APERTURE END LIST*
D10*
D11*
X241480000Y-96195000D03*
X110980000Y-141195000D03*
X83980000Y-96195000D03*
X110980000Y-51195000D03*
D12*
X206375000Y-83185000D03*
D13*
X203835000Y-83185000D03*
D12*
X206375000Y-113665000D03*
D13*
X203835000Y-113665000D03*
X203835000Y-111125000D03*
D12*
X206375000Y-111125000D03*
X206375000Y-106045000D03*
D13*
X203835000Y-106045000D03*
X203835000Y-108585000D03*
D12*
X206375000Y-108585000D03*
X206375000Y-103505000D03*
D13*
X203835000Y-103505000D03*
X203835000Y-100965000D03*
D12*
X206375000Y-100965000D03*
X206375000Y-85725000D03*
D13*
X203835000Y-85725000D03*
X203835000Y-88265000D03*
D12*
X206375000Y-88265000D03*
X206375000Y-93345000D03*
D13*
X203835000Y-93345000D03*
X203835000Y-90805000D03*
D12*
X206375000Y-90805000D03*
X206375000Y-95885000D03*
D13*
X203835000Y-95885000D03*
X203835000Y-98425000D03*
D12*
X206375000Y-98425000D03*
X201295000Y-113665000D03*
X201295000Y-111125000D03*
X201295000Y-108585000D03*
X201295000Y-106045000D03*
X196215000Y-103505000D03*
X201295000Y-95885000D03*
X201295000Y-93345000D03*
X201295000Y-90805000D03*
X201295000Y-88265000D03*
X201295000Y-85725000D03*
X201295000Y-83185000D03*
X201295000Y-80645000D03*
X198755000Y-103505000D03*
X198755000Y-106045000D03*
X198755000Y-108585000D03*
X198755000Y-111125000D03*
X198755000Y-113665000D03*
X201295000Y-103505000D03*
X196215000Y-106045000D03*
X196215000Y-108585000D03*
X196215000Y-111125000D03*
X196215000Y-113665000D03*
X198755000Y-80645000D03*
X198755000Y-83185000D03*
X198755000Y-85725000D03*
X198755000Y-88265000D03*
X198755000Y-90805000D03*
X198755000Y-93345000D03*
X198755000Y-95885000D03*
X196215000Y-80645000D03*
X196215000Y-83185000D03*
X196215000Y-85725000D03*
X196215000Y-88265000D03*
X196215000Y-90805000D03*
X196215000Y-93345000D03*
X196215000Y-95885000D03*
X206375000Y-80645000D03*
D13*
X203835000Y-80645000D03*
D12*
X201295000Y-100965000D03*
X201295000Y-98425000D03*
X198755000Y-100965000D03*
X198755000Y-98425000D03*
X196215000Y-98425000D03*
X196215000Y-100965000D03*
X208915000Y-100965000D03*
X208915000Y-98425000D03*
X211455000Y-98425000D03*
X211455000Y-100965000D03*
X208915000Y-95885000D03*
X208915000Y-93345000D03*
X208915000Y-90805000D03*
X208915000Y-88265000D03*
X208915000Y-85725000D03*
X208915000Y-83185000D03*
X208915000Y-80645000D03*
X211455000Y-95885000D03*
X211455000Y-93345000D03*
X211455000Y-90805000D03*
X211455000Y-88265000D03*
X211455000Y-85725000D03*
X211455000Y-83185000D03*
X211455000Y-80645000D03*
X208915000Y-113665000D03*
X208915000Y-111125000D03*
X208915000Y-108585000D03*
X208915000Y-106045000D03*
X211455000Y-113665000D03*
X211455000Y-111125000D03*
X211455000Y-108585000D03*
X211455000Y-106045000D03*
X211455000Y-103505000D03*
X208915000Y-103505000D03*
X193675000Y-113665000D03*
X193675000Y-111125000D03*
X193675000Y-108585000D03*
X193675000Y-106045000D03*
X188595000Y-103505000D03*
X193675000Y-95885000D03*
X193675000Y-93345000D03*
X193675000Y-90805000D03*
X193675000Y-88265000D03*
X193675000Y-85725000D03*
X193675000Y-83185000D03*
X193675000Y-80645000D03*
X191135000Y-103505000D03*
X191135000Y-106045000D03*
X191135000Y-108585000D03*
X191135000Y-111125000D03*
X191135000Y-113665000D03*
X193675000Y-103505000D03*
X188595000Y-106045000D03*
X188595000Y-108585000D03*
X188595000Y-111125000D03*
X188595000Y-113665000D03*
X191135000Y-80645000D03*
X191135000Y-83185000D03*
X191135000Y-85725000D03*
X191135000Y-88265000D03*
X191135000Y-90805000D03*
X191135000Y-93345000D03*
X191135000Y-95885000D03*
X188595000Y-80645000D03*
X188595000Y-83185000D03*
X188595000Y-85725000D03*
X188595000Y-88265000D03*
X188595000Y-90805000D03*
X188595000Y-93345000D03*
X188595000Y-95885000D03*
X193675000Y-100965000D03*
X193675000Y-98425000D03*
X191135000Y-100965000D03*
X191135000Y-98425000D03*
X188595000Y-98425000D03*
X188595000Y-100965000D03*
D13*
X183515000Y-108585000D03*
D12*
X186055000Y-108585000D03*
D13*
X183515000Y-111125000D03*
X183515000Y-113665000D03*
D12*
X186055000Y-113665000D03*
X186055000Y-111125000D03*
X178435000Y-98425000D03*
X178435000Y-100965000D03*
X180975000Y-98425000D03*
X180975000Y-100965000D03*
X186055000Y-103505000D03*
X186055000Y-106045000D03*
D13*
X183515000Y-106045000D03*
X183515000Y-103505000D03*
X183515000Y-80645000D03*
X183515000Y-83185000D03*
D12*
X186055000Y-83185000D03*
X186055000Y-80645000D03*
X178435000Y-95885000D03*
X178435000Y-93345000D03*
X178435000Y-90805000D03*
X178435000Y-88265000D03*
X178435000Y-85725000D03*
X178435000Y-83185000D03*
X178435000Y-80645000D03*
X180975000Y-103505000D03*
X178435000Y-113665000D03*
X178435000Y-111125000D03*
X178435000Y-108585000D03*
X178435000Y-106045000D03*
X178435000Y-103505000D03*
X186055000Y-85725000D03*
X186055000Y-88265000D03*
X186055000Y-93345000D03*
X186055000Y-90805000D03*
X186055000Y-100965000D03*
X186055000Y-98425000D03*
D13*
X183515000Y-95885000D03*
X183515000Y-98425000D03*
X183515000Y-100965000D03*
X183515000Y-90805000D03*
X183515000Y-93345000D03*
X183515000Y-88265000D03*
X183515000Y-85725000D03*
D12*
X186055000Y-95885000D03*
X180975000Y-80645000D03*
X180975000Y-83185000D03*
X180975000Y-85725000D03*
X180975000Y-88265000D03*
X180975000Y-90805000D03*
X180975000Y-93345000D03*
X180975000Y-95885000D03*
X180975000Y-106045000D03*
X180975000Y-108585000D03*
X180975000Y-111125000D03*
X180975000Y-113665000D03*
D14*
X125730000Y-41275000D03*
D15*
X120650000Y-41275000D03*
X148590000Y-78740000D03*
D14*
X123190000Y-78740000D03*
X133350000Y-78740000D03*
D15*
X138430000Y-78740000D03*
X142240000Y-99060000D03*
D14*
X142240000Y-124460000D03*
X142240000Y-114300000D03*
D15*
X142240000Y-109220000D03*
X212979000Y-147574000D03*
X205359000Y-147574000D03*
X212979000Y-145034000D03*
X205359000Y-145034000D03*
X212979000Y-142494000D03*
X205359000Y-142494000D03*
X212979000Y-139954000D03*
X205359000Y-139954000D03*
X212979000Y-137414000D03*
X205359000Y-137414000D03*
X212979000Y-134874000D03*
X205359000Y-134874000D03*
X212979000Y-132334000D03*
X205359000Y-132334000D03*
X212979000Y-129794000D03*
X205359000Y-129794000D03*
X212979000Y-127254000D03*
X205359000Y-127254000D03*
X212979000Y-124714000D03*
X205359000Y-124714000D03*
X212979000Y-122174000D03*
X205359000Y-122174000D03*
X212979000Y-119634000D03*
X205359000Y-119634000D03*
D16*
X112395000Y-111760000D03*
X112395000Y-116840000D03*
X122555000Y-137160000D03*
X122555000Y-142240000D03*
X89535000Y-126365000D03*
X94615000Y-126365000D03*
D17*
X171196000Y-113157000D03*
D18*
X171196000Y-110617000D03*
X171196000Y-108077000D03*
X171196000Y-105537000D03*
D15*
X237490000Y-124460000D03*
X237490000Y-132080000D03*
X115570000Y-111760000D03*
X115570000Y-119380000D03*
X115570000Y-122555000D03*
X115570000Y-130175000D03*
X116205000Y-100330000D03*
X116205000Y-92710000D03*
X113030000Y-92710000D03*
X113030000Y-100330000D03*
X166624000Y-114300000D03*
X159004000Y-114300000D03*
X148590000Y-121285000D03*
X148590000Y-113665000D03*
X109855000Y-91440000D03*
X109855000Y-99060000D03*
X135255000Y-93345000D03*
X135255000Y-100965000D03*
X231775000Y-138430000D03*
X231775000Y-146050000D03*
X229235000Y-138430000D03*
X229235000Y-146050000D03*
X226695000Y-138430000D03*
X226695000Y-146050000D03*
X224155000Y-138430000D03*
X224155000Y-146050000D03*
X231267000Y-52705000D03*
X231267000Y-45085000D03*
X228727000Y-52705000D03*
X228727000Y-45085000D03*
X226187000Y-52705000D03*
X226187000Y-45085000D03*
X223647000Y-52705000D03*
X223647000Y-45085000D03*
X216154000Y-62484000D03*
X216154000Y-70104000D03*
X218694000Y-62484000D03*
X218694000Y-70104000D03*
X221234000Y-62484000D03*
X221234000Y-70104000D03*
X223774000Y-62484000D03*
X223774000Y-70104000D03*
X226314000Y-62484000D03*
X226314000Y-70104000D03*
X228854000Y-62484000D03*
X228854000Y-70104000D03*
X231394000Y-62484000D03*
X231394000Y-70104000D03*
X233934000Y-62484000D03*
X233934000Y-70104000D03*
X236474000Y-62484000D03*
X236474000Y-70104000D03*
X239014000Y-62484000D03*
X239014000Y-70104000D03*
X241554000Y-62484000D03*
X241554000Y-70104000D03*
X244094000Y-62484000D03*
X244094000Y-70104000D03*
D19*
X85725000Y-61465000D03*
X85725000Y-38865000D03*
D15*
X152400000Y-76073000D03*
X160020000Y-76073000D03*
X152400000Y-73533000D03*
X160020000Y-73533000D03*
X152400000Y-70993000D03*
X160020000Y-70993000D03*
X152400000Y-68453000D03*
X160020000Y-68453000D03*
X152400000Y-65913000D03*
X160020000Y-65913000D03*
X152400000Y-63373000D03*
X160020000Y-63373000D03*
X152400000Y-60833000D03*
X160020000Y-60833000D03*
X152400000Y-58293000D03*
X160020000Y-58293000D03*
X152400000Y-55753000D03*
X160020000Y-55753000D03*
X152400000Y-53213000D03*
X160020000Y-53213000D03*
X152400000Y-50673000D03*
X160020000Y-50673000D03*
X152400000Y-48133000D03*
X160020000Y-48133000D03*
D16*
X127000000Y-104775000D03*
X121920000Y-104775000D03*
X132080000Y-100965000D03*
X132080000Y-95885000D03*
D20*
X112395000Y-120650000D03*
X112395000Y-130048000D03*
D21*
X74930000Y-71120000D03*
D22*
X74930000Y-60960000D03*
D21*
X74930000Y-66040000D03*
D23*
X111125000Y-82445000D03*
X111125000Y-80645000D03*
D24*
X111125000Y-84245000D03*
D23*
X111125000Y-78845000D03*
X111125000Y-77045000D03*
D25*
X233045000Y-128905000D03*
D26*
X233045000Y-126365000D03*
X230505000Y-126365000D03*
D16*
X139700000Y-137160000D03*
X139700000Y-142240000D03*
D27*
X134302500Y-135572500D03*
D28*
X131762500Y-135572500D03*
X129222500Y-135572500D03*
X126682500Y-135572500D03*
X126682500Y-143192500D03*
X129222500Y-143192500D03*
X131762500Y-143192500D03*
X134302500Y-143192500D03*
D29*
X101290000Y-87725000D03*
X150290000Y-87725000D03*
X150290000Y-145725000D03*
X110290000Y-69225000D03*
X101290000Y-145725000D03*
X135790000Y-123725000D03*
D30*
X95250000Y-131445000D03*
X95250000Y-133985000D03*
D31*
X87630000Y-131445000D03*
D30*
X87630000Y-133985000D03*
X87630000Y-136525000D03*
X87630000Y-139065000D03*
X87630000Y-141605000D03*
X87630000Y-144145000D03*
X87630000Y-146685000D03*
X87630000Y-149225000D03*
X95250000Y-149225000D03*
X95250000Y-146685000D03*
X95250000Y-144145000D03*
X95250000Y-141605000D03*
X95250000Y-139065000D03*
X95250000Y-136525000D03*
X95250000Y-104775000D03*
X95250000Y-107315000D03*
D31*
X87630000Y-104775000D03*
D30*
X87630000Y-107315000D03*
X87630000Y-109855000D03*
X87630000Y-112395000D03*
X87630000Y-114935000D03*
X87630000Y-117475000D03*
X87630000Y-120015000D03*
X87630000Y-122555000D03*
X95250000Y-122555000D03*
X95250000Y-120015000D03*
X95250000Y-117475000D03*
X95250000Y-114935000D03*
X95250000Y-112395000D03*
X95250000Y-109855000D03*
D32*
X249174000Y-65278000D03*
D33*
X249174000Y-70358000D03*
X249174000Y-75438000D03*
X249174000Y-80518000D03*
X249174000Y-85598000D03*
X249174000Y-90678000D03*
X249174000Y-95758000D03*
X249174000Y-100838000D03*
X249174000Y-105918000D03*
X249174000Y-110998000D03*
X249174000Y-116078000D03*
X249174000Y-121158000D03*
D32*
X210185000Y-152654000D03*
D34*
X205105000Y-152654000D03*
X200025000Y-152654000D03*
X194945000Y-152654000D03*
X189865000Y-152654000D03*
X184785000Y-152654000D03*
X179705000Y-152654000D03*
X174625000Y-152654000D03*
X169545000Y-152654000D03*
X164465000Y-152654000D03*
X159385000Y-152654000D03*
X154305000Y-152654000D03*
D32*
X154305000Y-39878000D03*
D34*
X159385000Y-39878000D03*
X164465000Y-39878000D03*
X169545000Y-39878000D03*
X174625000Y-39878000D03*
X179705000Y-39878000D03*
X184785000Y-39878000D03*
X189865000Y-39878000D03*
X194945000Y-39878000D03*
X200025000Y-39878000D03*
X205105000Y-39878000D03*
X210185000Y-39878000D03*
D35*
X151130000Y-125730000D03*
D16*
X148590000Y-125730000D03*
X148590000Y-128270000D03*
D35*
X116205000Y-105410000D03*
D16*
X113665000Y-105410000D03*
X113665000Y-107950000D03*
D30*
X120650000Y-126365000D03*
X120650000Y-123825000D03*
D31*
X128270000Y-126365000D03*
D30*
X128270000Y-123825000D03*
X128270000Y-121285000D03*
X128270000Y-118745000D03*
X128270000Y-116205000D03*
X128270000Y-113665000D03*
X128270000Y-111125000D03*
X128270000Y-108585000D03*
X120650000Y-108585000D03*
X120650000Y-111125000D03*
X120650000Y-113665000D03*
X120650000Y-116205000D03*
X120650000Y-118745000D03*
X120650000Y-121285000D03*
D36*
X223647000Y-56515000D03*
D37*
X226187000Y-56515000D03*
X228727000Y-56515000D03*
X231267000Y-56515000D03*
D36*
X224155000Y-135255000D03*
D37*
X226695000Y-135255000D03*
X229235000Y-135255000D03*
X231775000Y-135255000D03*
D19*
X140335000Y-50165000D03*
D38*
X94615000Y-60325000D03*
D19*
X140335000Y-40005000D03*
X94615000Y-40005000D03*
D39*
X120650000Y-92710000D03*
D40*
X120650000Y-95250000D03*
X120650000Y-97790000D03*
X120650000Y-100330000D03*
X128270000Y-100330000D03*
X128270000Y-97790000D03*
X128270000Y-95250000D03*
X128270000Y-92710000D03*
D15*
X118745000Y-87630000D03*
X118745000Y-82550000D03*
D14*
X158369000Y-109855000D03*
D15*
X158369000Y-107315000D03*
D14*
X165354000Y-103505000D03*
D15*
X165354000Y-100965000D03*
D14*
X158369000Y-103505000D03*
D15*
X158369000Y-100965000D03*
D14*
X219202000Y-41275000D03*
D15*
X219202000Y-38735000D03*
D14*
X225552000Y-41275000D03*
D15*
X225552000Y-38735000D03*
D14*
X231902000Y-41275000D03*
D15*
X231902000Y-38735000D03*
D14*
X238252000Y-41275000D03*
D15*
X238252000Y-38735000D03*
D14*
X227965000Y-149860000D03*
D15*
X227965000Y-152400000D03*
D14*
X234950000Y-149860000D03*
D15*
X234950000Y-152400000D03*
D14*
X241935000Y-149860000D03*
D15*
X241935000Y-152400000D03*
D14*
X165354000Y-109855000D03*
D15*
X165354000Y-107315000D03*
D23*
X131550000Y-38735000D03*
X133350000Y-38735000D03*
D24*
X129750000Y-38735000D03*
D23*
X135150000Y-38735000D03*
X136950000Y-38735000D03*
D15*
X148590000Y-69850000D03*
D14*
X123190000Y-69850000D03*
X133350000Y-69850000D03*
D15*
X138430000Y-69850000D03*
X102870000Y-92710000D03*
D14*
X102870000Y-67310000D03*
X102870000Y-77470000D03*
D15*
X102870000Y-82550000D03*
X146050000Y-64135000D03*
D14*
X146050000Y-38735000D03*
X146050000Y-48895000D03*
D15*
X146050000Y-53975000D03*
D14*
X220980000Y-149860000D03*
D15*
X220980000Y-152400000D03*
D41*
X76200000Y-104775000D03*
D42*
X78740000Y-104775000D03*
X76200000Y-107315000D03*
X78740000Y-107315000D03*
X76200000Y-109855000D03*
X78740000Y-109855000D03*
X76200000Y-112395000D03*
X78740000Y-112395000D03*
X76200000Y-114935000D03*
X78740000Y-114935000D03*
X76200000Y-117475000D03*
X78740000Y-117475000D03*
X76200000Y-120015000D03*
X78740000Y-120015000D03*
X76200000Y-122555000D03*
X78740000Y-122555000D03*
D41*
X76200000Y-131445000D03*
D42*
X78740000Y-131445000D03*
X76200000Y-133985000D03*
X78740000Y-133985000D03*
X76200000Y-136525000D03*
X78740000Y-136525000D03*
X76200000Y-139065000D03*
X78740000Y-139065000D03*
X76200000Y-141605000D03*
X78740000Y-141605000D03*
X76200000Y-144145000D03*
X78740000Y-144145000D03*
X76200000Y-146685000D03*
X78740000Y-146685000D03*
X76200000Y-149225000D03*
X78740000Y-149225000D03*
D14*
X76200000Y-127000000D03*
D43*
X78740000Y-127000000D03*
D14*
X76200000Y-99060000D03*
D43*
X78740000Y-99060000D03*
D13*
X91440000Y-98425000D03*
D12*
X91440000Y-95885000D03*
X91440000Y-93345000D03*
X91440000Y-90805000D03*
X91440000Y-88265000D03*
X91440000Y-85725000D03*
X91440000Y-83185000D03*
X91440000Y-80645000D03*
D41*
X218694000Y-110998000D03*
D42*
X216154000Y-110998000D03*
X218694000Y-108458000D03*
X216154000Y-108458000D03*
X218694000Y-105918000D03*
X216154000Y-105918000D03*
X218694000Y-103378000D03*
X216154000Y-103378000D03*
X218694000Y-100838000D03*
X216154000Y-100838000D03*
X218694000Y-98298000D03*
X216154000Y-98298000D03*
X218694000Y-95758000D03*
X216154000Y-95758000D03*
X218694000Y-93218000D03*
X216154000Y-93218000D03*
X218694000Y-90678000D03*
X216154000Y-90678000D03*
X218694000Y-88138000D03*
X216154000Y-88138000D03*
X218694000Y-85598000D03*
X216154000Y-85598000D03*
X218694000Y-83058000D03*
X216154000Y-83058000D03*
D41*
X244094000Y-73279000D03*
D42*
X244094000Y-75819000D03*
X241554000Y-73279000D03*
X241554000Y-75819000D03*
X239014000Y-73279000D03*
X239014000Y-75819000D03*
X236474000Y-73279000D03*
X236474000Y-75819000D03*
X233934000Y-73279000D03*
X233934000Y-75819000D03*
X231394000Y-73279000D03*
X231394000Y-75819000D03*
X228854000Y-73279000D03*
X228854000Y-75819000D03*
X226314000Y-73279000D03*
X226314000Y-75819000D03*
X223774000Y-73279000D03*
X223774000Y-75819000D03*
X221234000Y-73279000D03*
X221234000Y-75819000D03*
X218694000Y-73279000D03*
X218694000Y-75819000D03*
X216154000Y-73279000D03*
X216154000Y-75819000D03*
D41*
X244094000Y-116078000D03*
D42*
X244094000Y-118618000D03*
X241554000Y-116078000D03*
X241554000Y-118618000D03*
X239014000Y-116078000D03*
X239014000Y-118618000D03*
X236474000Y-116078000D03*
X236474000Y-118618000D03*
X233934000Y-116078000D03*
X233934000Y-118618000D03*
X231394000Y-116078000D03*
X231394000Y-118618000D03*
X228854000Y-116078000D03*
X228854000Y-118618000D03*
X226314000Y-116078000D03*
X226314000Y-118618000D03*
X223774000Y-116078000D03*
X223774000Y-118618000D03*
X221234000Y-116078000D03*
X221234000Y-118618000D03*
X218694000Y-116078000D03*
X218694000Y-118618000D03*
X216154000Y-116078000D03*
X216154000Y-118618000D03*
D41*
X164465000Y-122174000D03*
D42*
X164465000Y-119634000D03*
X167005000Y-122174000D03*
X167005000Y-119634000D03*
X169545000Y-122174000D03*
X169545000Y-119634000D03*
X172085000Y-122174000D03*
X172085000Y-119634000D03*
X174625000Y-122174000D03*
X174625000Y-119634000D03*
X177165000Y-122174000D03*
X177165000Y-119634000D03*
X179705000Y-122174000D03*
X179705000Y-119634000D03*
X182245000Y-122174000D03*
X182245000Y-119634000D03*
X184785000Y-122174000D03*
X184785000Y-119634000D03*
X187325000Y-122174000D03*
X187325000Y-119634000D03*
X189865000Y-122174000D03*
X189865000Y-119634000D03*
X192405000Y-122174000D03*
X192405000Y-119634000D03*
D41*
X202184000Y-147574000D03*
D42*
X199644000Y-147574000D03*
X202184000Y-145034000D03*
X199644000Y-145034000D03*
X202184000Y-142494000D03*
X199644000Y-142494000D03*
X202184000Y-139954000D03*
X199644000Y-139954000D03*
X202184000Y-137414000D03*
X199644000Y-137414000D03*
X202184000Y-134874000D03*
X199644000Y-134874000D03*
X202184000Y-132334000D03*
X199644000Y-132334000D03*
X202184000Y-129794000D03*
X199644000Y-129794000D03*
X202184000Y-127254000D03*
X199644000Y-127254000D03*
X202184000Y-124714000D03*
X199644000Y-124714000D03*
X202184000Y-122174000D03*
X199644000Y-122174000D03*
X202184000Y-119634000D03*
X199644000Y-119634000D03*
D41*
X159385000Y-147574000D03*
D42*
X156845000Y-147574000D03*
X159385000Y-145034000D03*
X156845000Y-145034000D03*
X159385000Y-142494000D03*
X156845000Y-142494000D03*
X159385000Y-139954000D03*
X156845000Y-139954000D03*
X159385000Y-137414000D03*
X156845000Y-137414000D03*
X159385000Y-134874000D03*
X156845000Y-134874000D03*
X159385000Y-132334000D03*
X156845000Y-132334000D03*
X159385000Y-129794000D03*
X156845000Y-129794000D03*
X159385000Y-127254000D03*
X156845000Y-127254000D03*
X159385000Y-124714000D03*
X156845000Y-124714000D03*
X159385000Y-122174000D03*
X156845000Y-122174000D03*
X159385000Y-119634000D03*
X156845000Y-119634000D03*
D41*
X201295000Y-73533000D03*
D42*
X201295000Y-76073000D03*
X198755000Y-73533000D03*
X198755000Y-76073000D03*
X196215000Y-73533000D03*
X196215000Y-76073000D03*
X193675000Y-73533000D03*
X193675000Y-76073000D03*
X191135000Y-73533000D03*
X191135000Y-76073000D03*
X188595000Y-73533000D03*
X188595000Y-76073000D03*
X186055000Y-73533000D03*
X186055000Y-76073000D03*
X183515000Y-73533000D03*
X183515000Y-76073000D03*
X180975000Y-73533000D03*
X180975000Y-76073000D03*
X178435000Y-73533000D03*
X178435000Y-76073000D03*
X175895000Y-73533000D03*
X175895000Y-76073000D03*
X173355000Y-73533000D03*
X173355000Y-76073000D03*
D41*
X163195000Y-48133000D03*
D42*
X165735000Y-48133000D03*
X163195000Y-50673000D03*
X165735000Y-50673000D03*
X163195000Y-53213000D03*
X165735000Y-53213000D03*
X163195000Y-55753000D03*
X165735000Y-55753000D03*
X163195000Y-58293000D03*
X165735000Y-58293000D03*
X163195000Y-60833000D03*
X165735000Y-60833000D03*
X163195000Y-63373000D03*
X165735000Y-63373000D03*
X163195000Y-65913000D03*
X165735000Y-65913000D03*
X163195000Y-68453000D03*
X165735000Y-68453000D03*
X163195000Y-70993000D03*
X165735000Y-70993000D03*
X163195000Y-73533000D03*
X165735000Y-73533000D03*
X163195000Y-76073000D03*
X165735000Y-76073000D03*
D41*
X208280000Y-48133000D03*
D42*
X210820000Y-48133000D03*
X208280000Y-50673000D03*
X210820000Y-50673000D03*
X208280000Y-53213000D03*
X210820000Y-53213000D03*
X208280000Y-55753000D03*
X210820000Y-55753000D03*
X208280000Y-58293000D03*
X210820000Y-58293000D03*
X208280000Y-60833000D03*
X210820000Y-60833000D03*
X208280000Y-63373000D03*
X210820000Y-63373000D03*
X208280000Y-65913000D03*
X210820000Y-65913000D03*
X208280000Y-68453000D03*
X210820000Y-68453000D03*
X208280000Y-70993000D03*
X210820000Y-70993000D03*
X208280000Y-73533000D03*
X210820000Y-73533000D03*
X208280000Y-76073000D03*
X210820000Y-76073000D03*
D19*
X116840000Y-52785000D03*
X116840000Y-62785000D03*
D44*
X130810000Y-59630000D03*
X130810000Y-52130000D03*
D22*
X115570000Y-41275000D03*
D21*
X110490000Y-41275000D03*
D19*
X83185000Y-76835000D03*
X77470000Y-40640000D03*
D13*
X218440000Y-123825000D03*
D12*
X218440000Y-126365000D03*
X218440000Y-128905000D03*
X218440000Y-131445000D03*
D41*
X156210000Y-83185000D03*
D42*
X156210000Y-80645000D03*
X158750000Y-83185000D03*
X158750000Y-80645000D03*
X161290000Y-83185000D03*
X161290000Y-80645000D03*
X163830000Y-83185000D03*
X163830000Y-80645000D03*
X166370000Y-83185000D03*
X166370000Y-80645000D03*
X168910000Y-83185000D03*
X168910000Y-80645000D03*
X171450000Y-83185000D03*
X171450000Y-80645000D03*
X173990000Y-83185000D03*
X173990000Y-80645000D03*
D41*
X156210000Y-89535000D03*
D42*
X156210000Y-86995000D03*
X158750000Y-89535000D03*
X158750000Y-86995000D03*
X161290000Y-89535000D03*
X161290000Y-86995000D03*
X163830000Y-89535000D03*
X163830000Y-86995000D03*
X166370000Y-89535000D03*
X166370000Y-86995000D03*
X168910000Y-89535000D03*
X168910000Y-86995000D03*
X171450000Y-89535000D03*
X171450000Y-86995000D03*
X173990000Y-89535000D03*
X173990000Y-86995000D03*
D41*
X156210000Y-95885000D03*
D42*
X156210000Y-93345000D03*
X158750000Y-95885000D03*
X158750000Y-93345000D03*
X161290000Y-95885000D03*
X161290000Y-93345000D03*
X163830000Y-95885000D03*
X163830000Y-93345000D03*
X166370000Y-95885000D03*
X166370000Y-93345000D03*
X168910000Y-95885000D03*
X168910000Y-93345000D03*
X171450000Y-95885000D03*
X171450000Y-93345000D03*
X173990000Y-95885000D03*
X173990000Y-93345000D03*
D41*
X134620000Y-151130000D03*
D42*
X134620000Y-153670000D03*
X132080000Y-151130000D03*
X132080000Y-153670000D03*
X129540000Y-151130000D03*
X129540000Y-153670000D03*
X127000000Y-151130000D03*
X127000000Y-153670000D03*
D19*
X135175000Y-85725000D03*
X125175000Y-85725000D03*
D45*
X103505000Y-41275000D03*
X103505000Y-46990000D03*
X103505000Y-52705000D03*
X103505000Y-58420000D03*
D20*
X86360000Y-90805000D03*
X76200000Y-88265000D03*
X86360000Y-85725000D03*
X84074000Y-88265000D03*
D41*
X109220000Y-56515000D03*
D42*
X111760000Y-56515000D03*
X109220000Y-59055000D03*
X111760000Y-59055000D03*
X109220000Y-61595000D03*
X111760000Y-61595000D03*
D14*
X186055000Y-116840000D03*
X183515000Y-116840000D03*
X180975000Y-116840000D03*
X206375000Y-116840000D03*
X203835000Y-116840000D03*
X201295000Y-116840000D03*
M02*
