M48
;DRILL file {KiCad 4.0.1-stable} date 20/12/2015 16:33:21
;FORMAT={-:-/ absolute / inch / decimal}
FMAT,2
INCH,TZ
T1C0.016
T2C0.031
T3C0.032
T4C0.032
T5C0.039
T6C0.039
T7C0.040
T8C0.047
T9C0.051
T10C0.055
T11C0.055
T12C0.118
T13C0.128
%
G90
G05
M72
T1
X3.94Y-4.545
X3.995Y-4.61
X4.04Y-5.13
X4.15Y-5.23
X4.15Y-5.47
X4.275Y-5.14
X4.36Y-3.545
X6.555Y-4.96
X6.555Y-4.96
X6.655Y-5.02
X6.655Y-5.02
X6.75Y-5.09
X6.75Y-5.09
X6.77Y-1.995
X6.855Y-5.155
X6.855Y-5.155
X6.965Y-5.21
X6.965Y-5.21
X7.045Y-2.095
X7.05Y-5.31
X7.05Y-5.31
X7.095Y-2.195
X7.16Y-5.41
X7.16Y-5.41
X7.2Y-2.295
X7.265Y-5.51
X7.265Y-5.51
X7.29Y-2.395
X7.37Y-5.61
X7.37Y-5.61
X7.395Y-2.495
X7.49Y-2.57
X7.6Y-5.71
X7.6Y-5.71
X7.61Y-2.625
X7.69Y-2.68
X7.795Y-2.745
X8.76Y-4.27
X8.825Y-4.17
X8.89Y-4.07
X8.955Y-3.97
X9.01Y-3.585
X9.065Y-3.43
X9.115Y-3.3
X9.165Y-3.23
X9.25Y-3.175
X9.415Y-3.12
T2
X3.45Y-4.125
X3.45Y-4.225
X3.45Y-4.325
X3.45Y-4.425
X3.45Y-4.525
X3.45Y-4.625
X3.45Y-4.725
X3.45Y-4.825
X3.45Y-5.175
X3.45Y-5.275
X3.45Y-5.375
X3.45Y-5.475
X3.45Y-5.575
X3.45Y-5.675
X3.45Y-5.775
X3.45Y-5.875
X3.75Y-4.125
X3.75Y-4.225
X3.75Y-4.325
X3.75Y-4.425
X3.75Y-4.525
X3.75Y-4.625
X3.75Y-4.725
X3.75Y-4.825
X3.75Y-5.175
X3.75Y-5.275
X3.75Y-5.375
X3.75Y-5.475
X3.75Y-5.575
X3.75Y-5.675
X3.75Y-5.775
X3.75Y-5.875
X4.75Y-4.275
X4.75Y-4.375
X4.75Y-4.475
X4.75Y-4.575
X4.75Y-4.675
X4.75Y-4.775
X4.75Y-4.875
X4.75Y-4.975
X5.05Y-4.275
X5.05Y-4.375
X5.05Y-4.475
X5.05Y-4.575
X5.05Y-4.675
X5.05Y-4.775
X5.05Y-4.875
X5.05Y-4.975
T3
X3.525Y-4.975
X3.725Y-4.975
X4.175Y-1.5
X4.175Y-1.9
X4.175Y-2.1
X4.175Y-2.5
X4.425Y-4.4
X4.425Y-4.6
X4.45Y-3.65
X4.45Y-3.95
X4.475Y-4.15
X4.475Y-4.25
X4.55Y-4.4
X4.55Y-4.7
X4.55Y-4.825
X4.55Y-5.125
X4.575Y-3.65
X4.575Y-3.95
X4.575Y-4.15
X4.675Y-3.25
X4.675Y-3.45
X4.8Y-4.125
X4.825Y-5.4
X4.825Y-5.6
X4.85Y-2.725
X4.85Y-3.1
X4.925Y-3.5
X5.Y-4.125
X5.2Y-3.775
X5.2Y-3.975
X5.225Y-3.5
X5.25Y-2.725
X5.25Y-3.1
X5.325Y-3.675
X5.325Y-3.975
X5.45Y-2.725
X5.45Y-3.1
X5.5Y-5.4
X5.5Y-5.6
X5.6Y-3.9
X5.6Y-4.3
X5.6Y-4.5
X5.6Y-4.9
X5.75Y-1.525
X5.75Y-1.925
X5.75Y-2.125
X5.75Y-2.525
X5.825Y-3.975
X5.825Y-4.075
X5.825Y-4.175
X5.85Y-2.725
X5.85Y-3.1
X5.85Y-4.475
X5.85Y-4.775
X5.85Y-4.95
X5.85Y-5.05
X5.95Y-4.95
X6.Y-1.895
X6.Y-1.995
X6.Y-2.095
X6.Y-2.195
X6.Y-2.295
X6.Y-2.395
X6.Y-2.495
X6.Y-2.595
X6.Y-2.695
X6.Y-2.795
X6.Y-2.895
X6.Y-2.995
X6.125Y-3.975
X6.125Y-4.075
X6.125Y-4.175
X6.3Y-1.895
X6.3Y-1.995
X6.3Y-2.095
X6.3Y-2.195
X6.3Y-2.295
X6.3Y-2.395
X6.3Y-2.495
X6.3Y-2.595
X6.3Y-2.695
X6.3Y-2.795
X6.3Y-2.895
X6.3Y-2.995
X6.325Y-4.5
X6.625Y-4.5
X8.085Y-4.71
X8.085Y-4.81
X8.085Y-4.91
X8.085Y-5.01
X8.085Y-5.11
X8.085Y-5.21
X8.085Y-5.31
X8.085Y-5.41
X8.085Y-5.51
X8.085Y-5.61
X8.085Y-5.71
X8.085Y-5.81
X8.385Y-4.71
X8.385Y-4.81
X8.385Y-4.91
X8.385Y-5.01
X8.385Y-5.11
X8.385Y-5.21
X8.385Y-5.31
X8.385Y-5.41
X8.385Y-5.51
X8.385Y-5.61
X8.385Y-5.71
X8.385Y-5.81
X8.51Y-2.46
X8.51Y-2.76
X8.61Y-2.46
X8.61Y-2.76
X8.71Y-2.46
X8.71Y-2.76
X8.805Y-1.775
X8.805Y-2.075
X8.81Y-2.46
X8.81Y-2.76
X8.825Y-4.975
X8.825Y-5.45
X8.825Y-5.75
X8.905Y-1.775
X8.905Y-2.075
X8.91Y-2.46
X8.91Y-2.76
X8.925Y-4.975
X8.925Y-5.075
X8.925Y-5.45
X8.925Y-5.75
X9.005Y-1.775
X9.005Y-2.075
X9.01Y-2.46
X9.01Y-2.76
X9.025Y-5.45
X9.025Y-5.75
X9.105Y-1.775
X9.105Y-2.075
X9.11Y-2.46
X9.11Y-2.76
X9.125Y-5.45
X9.125Y-5.75
X9.15Y-4.9
X9.15Y-5.2
X9.21Y-2.46
X9.21Y-2.76
X9.31Y-2.46
X9.31Y-2.76
X9.41Y-2.46
X9.41Y-2.76
X9.51Y-2.46
X9.51Y-2.76
X9.61Y-2.46
X9.61Y-2.76
T4
X4.75Y-3.65
X4.75Y-3.75
X4.75Y-3.85
X4.75Y-3.95
X4.9875Y-5.3375
X4.9875Y-5.6375
X5.05Y-3.65
X5.05Y-3.75
X5.05Y-3.85
X5.05Y-3.95
X5.0875Y-5.3375
X5.0875Y-5.6375
X5.1875Y-5.3375
X5.1875Y-5.6375
X5.2875Y-5.3375
X5.2875Y-5.6375
X6.3Y-3.975
X6.3Y-4.075
X6.3Y-4.225
X6.3Y-4.325
X6.575Y-3.975
X6.575Y-4.075
X6.575Y-4.225
X6.575Y-4.325
X8.63Y-1.525
X8.63Y-1.625
X8.7Y-5.9
X8.7Y-6.
X8.88Y-1.525
X8.88Y-1.625
X8.975Y-5.9
X8.975Y-6.
X9.13Y-1.525
X9.13Y-1.625
X9.25Y-5.9
X9.25Y-6.
X9.38Y-1.525
X9.38Y-1.625
X9.525Y-5.9
X9.525Y-6.
T5
X3.Y-3.475
X3.31Y-3.475
X3.4Y-3.375
X3.4Y-3.575
X6.845Y-4.155
X6.845Y-4.255
X6.845Y-4.355
X6.845Y-4.455
T6
X4.375Y-3.0333
X4.375Y-3.1041
X4.375Y-3.175
X4.375Y-3.2459
X4.375Y-3.3167
X4.425Y-4.75
X4.425Y-5.12
X4.9Y-3.325
X5.0833Y-1.525
X5.1541Y-1.525
X5.225Y-1.525
X5.27Y-3.325
X5.2959Y-1.525
X5.3667Y-1.525
T7
X3.Y-3.9
X3.Y-4.125
X3.Y-4.225
X3.Y-4.325
X3.Y-4.425
X3.Y-4.525
X3.Y-4.625
X3.Y-4.725
X3.Y-4.825
X3.Y-5.
X3.Y-5.175
X3.Y-5.275
X3.Y-5.375
X3.Y-5.475
X3.Y-5.575
X3.Y-5.675
X3.Y-5.775
X3.Y-5.875
X3.1Y-3.9
X3.1Y-4.125
X3.1Y-4.225
X3.1Y-4.325
X3.1Y-4.425
X3.1Y-4.525
X3.1Y-4.625
X3.1Y-4.725
X3.1Y-4.825
X3.1Y-5.
X3.1Y-5.175
X3.1Y-5.275
X3.1Y-5.375
X3.1Y-5.475
X3.1Y-5.575
X3.1Y-5.675
X3.1Y-5.775
X3.1Y-5.875
X3.6Y-3.175
X3.6Y-3.275
X3.6Y-3.375
X3.6Y-3.475
X3.6Y-3.575
X3.6Y-3.675
X3.6Y-3.775
X3.6Y-3.875
X4.96Y-6.
X5.06Y-6.
X5.31Y-6.
X5.41Y-6.
X6.175Y-4.71
X6.175Y-4.81
X6.175Y-4.91
X6.175Y-5.01
X6.175Y-5.11
X6.175Y-5.21
X6.175Y-5.31
X6.175Y-5.41
X6.175Y-5.51
X6.175Y-5.61
X6.175Y-5.71
X6.175Y-5.81
X6.275Y-4.71
X6.275Y-4.81
X6.275Y-4.91
X6.275Y-5.01
X6.275Y-5.11
X6.275Y-5.21
X6.275Y-5.31
X6.275Y-5.41
X6.275Y-5.51
X6.275Y-5.61
X6.275Y-5.71
X6.275Y-5.81
X6.425Y-1.895
X6.425Y-1.995
X6.425Y-2.095
X6.425Y-2.195
X6.425Y-2.295
X6.425Y-2.395
X6.425Y-2.495
X6.425Y-2.595
X6.425Y-2.695
X6.425Y-2.795
X6.425Y-2.895
X6.425Y-2.995
X6.475Y-4.71
X6.475Y-4.81
X6.525Y-1.895
X6.525Y-1.995
X6.525Y-2.095
X6.525Y-2.195
X6.525Y-2.295
X6.525Y-2.395
X6.525Y-2.495
X6.525Y-2.595
X6.525Y-2.695
X6.525Y-2.795
X6.525Y-2.895
X6.525Y-2.995
X6.525Y-3.175
X6.525Y-3.275
X6.525Y-3.425
X6.525Y-3.525
X6.525Y-3.695
X6.525Y-3.795
X6.575Y-4.71
X6.575Y-4.81
X6.625Y-3.175
X6.625Y-3.275
X6.625Y-3.425
X6.625Y-3.525
X6.625Y-3.695
X6.625Y-3.795
X6.675Y-4.71
X6.675Y-4.81
X6.725Y-3.175
X6.725Y-3.275
X6.725Y-3.425
X6.725Y-3.525
X6.725Y-3.695
X6.725Y-3.795
X6.775Y-4.71
X6.775Y-4.81
X6.825Y-2.895
X6.825Y-2.995
X6.825Y-3.175
X6.825Y-3.275
X6.825Y-3.425
X6.825Y-3.525
X6.825Y-3.695
X6.825Y-3.795
X6.875Y-4.71
X6.875Y-4.81
X6.925Y-2.895
X6.925Y-2.995
X6.975Y-4.71
X6.975Y-4.81
X7.025Y-2.895
X7.025Y-2.995
X7.05Y-3.25
X7.05Y-3.35
X7.05Y-3.45
X7.05Y-3.55
X7.05Y-3.65
X7.05Y-3.75
X7.05Y-3.85
X7.075Y-4.71
X7.075Y-4.81
X7.125Y-2.895
X7.125Y-2.995
X7.15Y-3.25
X7.15Y-3.35
X7.15Y-3.45
X7.15Y-3.55
X7.15Y-3.65
X7.15Y-3.75
X7.15Y-3.85
X7.175Y-4.71
X7.175Y-4.81
X7.225Y-2.895
X7.225Y-2.995
X7.25Y-3.25
X7.25Y-3.35
X7.25Y-3.45
X7.25Y-3.55
X7.25Y-3.65
X7.25Y-3.75
X7.25Y-3.85
X7.275Y-4.71
X7.275Y-4.81
X7.325Y-2.895
X7.325Y-2.995
X7.35Y-3.25
X7.35Y-3.35
X7.35Y-3.45
X7.35Y-3.55
X7.35Y-3.65
X7.35Y-3.75
X7.35Y-3.85
X7.375Y-4.71
X7.375Y-4.81
X7.425Y-2.895
X7.425Y-2.995
X7.45Y-3.25
X7.45Y-3.35
X7.45Y-3.45
X7.45Y-3.55
X7.45Y-3.65
X7.45Y-3.75
X7.45Y-3.85
X7.475Y-4.71
X7.475Y-4.81
X7.525Y-2.895
X7.525Y-2.995
X7.55Y-3.25
X7.55Y-3.35
X7.55Y-3.45
X7.55Y-3.55
X7.55Y-3.65
X7.55Y-3.75
X7.55Y-3.85
X7.575Y-4.71
X7.575Y-4.81
X7.625Y-2.895
X7.625Y-2.995
X7.65Y-3.25
X7.65Y-3.35
X7.65Y-3.45
X7.65Y-3.55
X7.65Y-3.65
X7.65Y-3.75
X7.65Y-3.85
X7.65Y-3.95
X7.65Y-4.05
X7.65Y-4.15
X7.65Y-4.25
X7.725Y-2.895
X7.725Y-2.995
X7.75Y-3.25
X7.75Y-3.35
X7.75Y-3.45
X7.75Y-3.55
X7.75Y-3.65
X7.75Y-3.75
X7.75Y-3.85
X7.75Y-3.95
X7.75Y-4.05
X7.75Y-4.15
X7.75Y-4.25
X7.825Y-2.895
X7.825Y-2.995
X7.85Y-3.25
X7.85Y-3.35
X7.85Y-3.45
X7.85Y-3.55
X7.85Y-3.65
X7.85Y-3.75
X7.85Y-3.85
X7.86Y-4.71
X7.86Y-4.81
X7.86Y-4.91
X7.86Y-5.01
X7.86Y-5.11
X7.86Y-5.21
X7.86Y-5.31
X7.86Y-5.41
X7.86Y-5.51
X7.86Y-5.61
X7.86Y-5.71
X7.86Y-5.81
X7.925Y-2.895
X7.925Y-2.995
X7.95Y-3.25
X7.95Y-3.35
X7.95Y-3.45
X7.95Y-3.55
X7.95Y-3.65
X7.95Y-3.75
X7.95Y-3.85
X7.96Y-4.71
X7.96Y-4.81
X7.96Y-4.91
X7.96Y-5.01
X7.96Y-5.11
X7.96Y-5.21
X7.96Y-5.31
X7.96Y-5.41
X7.96Y-5.51
X7.96Y-5.61
X7.96Y-5.71
X7.96Y-5.81
X8.05Y-3.25
X8.05Y-3.35
X8.05Y-3.45
X8.05Y-3.55
X8.05Y-3.65
X8.05Y-3.75
X8.05Y-3.85
X8.15Y-3.25
X8.15Y-3.35
X8.15Y-3.45
X8.15Y-3.55
X8.15Y-3.65
X8.15Y-3.75
X8.15Y-3.85
X8.2Y-1.895
X8.2Y-1.995
X8.2Y-2.095
X8.2Y-2.195
X8.2Y-2.295
X8.2Y-2.395
X8.2Y-2.495
X8.2Y-2.595
X8.2Y-2.695
X8.2Y-2.795
X8.2Y-2.895
X8.2Y-2.995
X8.25Y-3.25
X8.25Y-3.35
X8.25Y-3.45
X8.25Y-3.55
X8.25Y-3.65
X8.25Y-3.75
X8.25Y-3.85
X8.3Y-1.895
X8.3Y-1.995
X8.3Y-2.095
X8.3Y-2.195
X8.3Y-2.295
X8.3Y-2.395
X8.3Y-2.495
X8.3Y-2.595
X8.3Y-2.695
X8.3Y-2.795
X8.3Y-2.895
X8.3Y-2.995
X8.35Y-3.25
X8.35Y-3.35
X8.35Y-3.45
X8.35Y-3.55
X8.35Y-3.65
X8.35Y-3.75
X8.35Y-3.85
X8.51Y-2.885
X8.51Y-2.985
X8.51Y-3.27
X8.51Y-3.37
X8.51Y-3.47
X8.51Y-3.57
X8.51Y-3.67
X8.51Y-3.77
X8.51Y-3.87
X8.51Y-3.97
X8.51Y-4.07
X8.51Y-4.17
X8.51Y-4.27
X8.51Y-4.37
X8.51Y-4.57
X8.51Y-4.67
X8.575Y-4.95
X8.575Y-5.05
X8.575Y-5.15
X8.61Y-2.885
X8.61Y-2.985
X8.61Y-3.27
X8.61Y-3.37
X8.61Y-3.47
X8.61Y-3.57
X8.61Y-3.67
X8.61Y-3.77
X8.61Y-3.87
X8.61Y-3.97
X8.61Y-4.07
X8.61Y-4.17
X8.61Y-4.27
X8.61Y-4.37
X8.61Y-4.57
X8.61Y-4.67
X8.71Y-2.885
X8.71Y-2.985
X8.71Y-4.57
X8.71Y-4.67
X8.805Y-2.225
X8.81Y-2.885
X8.81Y-2.985
X8.81Y-4.57
X8.81Y-4.67
X8.825Y-5.325
X8.905Y-2.225
X8.91Y-2.885
X8.91Y-2.985
X8.91Y-4.57
X8.91Y-4.67
X8.925Y-5.325
X9.005Y-2.225
X9.01Y-2.885
X9.01Y-2.985
X9.01Y-4.57
X9.01Y-4.67
X9.025Y-5.325
X9.105Y-2.225
X9.11Y-2.885
X9.11Y-2.985
X9.11Y-4.57
X9.11Y-4.67
X9.125Y-5.325
X9.21Y-2.885
X9.21Y-2.985
X9.21Y-4.57
X9.21Y-4.67
X9.31Y-2.885
X9.31Y-2.985
X9.31Y-4.57
X9.31Y-4.67
X9.4Y-4.95
X9.4Y-5.05
X9.4Y-5.15
X9.41Y-2.885
X9.41Y-2.985
X9.41Y-4.57
X9.41Y-4.67
X9.51Y-2.885
X9.51Y-2.985
X9.51Y-4.57
X9.51Y-4.67
X9.61Y-2.885
X9.61Y-2.985
X9.61Y-4.57
X9.61Y-4.67
T8
X2.95Y-2.4
X2.95Y-2.6
X2.95Y-2.8
X3.725Y-1.575
X3.725Y-2.375
X4.5Y-1.625
X4.7Y-1.625
X5.15Y-1.9524
X5.15Y-2.2476
X5.525Y-1.575
X5.525Y-1.975
T9
X4.6Y-2.0781
X4.6Y-2.4719
T10
X3.375Y-1.5301
X3.375Y-2.4199
T11
X6.075Y-1.57
X6.075Y-6.01
X6.275Y-1.57
X6.275Y-6.01
X6.475Y-1.57
X6.475Y-6.01
X6.675Y-1.57
X6.675Y-6.01
X6.875Y-1.57
X6.875Y-6.01
X7.075Y-1.57
X7.075Y-6.01
X7.275Y-1.57
X7.275Y-6.01
X7.475Y-1.57
X7.475Y-6.01
X7.675Y-1.57
X7.675Y-6.01
X7.875Y-1.57
X7.875Y-6.01
X8.075Y-1.57
X8.075Y-6.01
X8.275Y-1.57
X8.275Y-6.01
X9.81Y-2.57
X9.81Y-2.77
X9.81Y-2.97
X9.81Y-3.17
X9.81Y-3.37
X9.81Y-3.57
X9.81Y-3.77
X9.81Y-3.97
X9.81Y-4.17
X9.81Y-4.37
X9.81Y-4.57
X9.81Y-4.77
T12
X3.05Y-1.6
X3.275Y-3.025
X3.9878Y-3.4537
X3.9878Y-5.7372
X4.3421Y-2.7254
X5.3461Y-4.8711
X5.9169Y-3.4537
X5.9169Y-5.7372
T13
X3.3063Y-3.7872
X4.3693Y-2.0156
X4.3693Y-5.5589
X9.5071Y-3.7872
T0
M30
